<svg width="169" height="53" viewBox="0 0 169 53" fill="none" xmlns="http://www.w3.org/2000/svg">
<rect width="169" height="53" rx="8" fill="#121212"/>
<path d="M72.004 14.764C72.004 15.62 71.832 16.368 71.488 17.008C71.144 17.64 70.636 18.132 69.964 18.484C69.3 18.828 68.5 19 67.564 19H64.876V10.54H67.564C68.5 10.54 69.3 10.712 69.964 11.056C70.636 11.392 71.144 11.88 71.488 12.52C71.832 13.152 72.004 13.9 72.004 14.764ZM67.48 18.016C68.584 18.016 69.428 17.732 70.012 17.164C70.596 16.596 70.888 15.796 70.888 14.764C70.888 13.732 70.596 12.932 70.012 12.364C69.436 11.788 68.592 11.5 67.48 11.5H65.968V18.016H67.48ZM76.4656 12.328C77.0976 12.328 77.6616 12.464 78.1576 12.736C78.6616 13.008 79.0536 13.4 79.3336 13.912C79.6216 14.424 79.7656 15.024 79.7656 15.712C79.7656 16.4 79.6216 17 79.3336 17.512C79.0536 18.016 78.6616 18.404 78.1576 18.676C77.6616 18.948 77.0976 19.084 76.4656 19.084C75.8336 19.084 75.2656 18.948 74.7616 18.676C74.2656 18.404 73.8736 18.016 73.5856 17.512C73.2976 17 73.1536 16.4 73.1536 15.712C73.1536 15.024 73.2976 14.424 73.5856 13.912C73.8736 13.4 74.2656 13.008 74.7616 12.736C75.2656 12.464 75.8336 12.328 76.4656 12.328ZM76.4656 13.288C76.0736 13.288 75.7096 13.376 75.3736 13.552C75.0456 13.728 74.7776 14 74.5696 14.368C74.3696 14.728 74.2696 15.176 74.2696 15.712C74.2696 16.24 74.3696 16.688 74.5696 17.056C74.7776 17.416 75.0456 17.684 75.3736 17.86C75.7096 18.036 76.0736 18.124 76.4656 18.124C76.8576 18.124 77.2176 18.036 77.5456 17.86C77.8816 17.684 78.1496 17.416 78.3496 17.056C78.5576 16.688 78.6616 16.24 78.6616 15.712C78.6616 15.176 78.5576 14.728 78.3496 14.368C78.1496 14 77.8816 13.728 77.5456 13.552C77.2176 13.376 76.8576 13.288 76.4656 13.288ZM90.2365 12.412L88.3405 19H87.1645L85.3525 13.636L83.5285 19H82.3405L80.4685 12.412H81.5725L82.9765 17.956L84.8005 12.412H85.9405L87.7765 17.944L89.1925 12.412H90.2365ZM94.7229 12.304C95.4909 12.304 96.1109 12.552 96.5829 13.048C97.0549 13.536 97.2909 14.244 97.2909 15.172V19H96.1989V15.268C96.1989 14.612 96.0309 14.108 95.6949 13.756C95.3589 13.404 94.9029 13.228 94.3269 13.228C93.7269 13.228 93.2469 13.424 92.8869 13.816C92.5269 14.2 92.3469 14.764 92.3469 15.508V19H91.2549V12.412H92.3469V13.972C92.5149 13.436 92.8109 13.024 93.2349 12.736C93.6669 12.448 94.1629 12.304 94.7229 12.304ZM100.058 10.12V19H98.9658V10.12H100.058ZM104.802 12.328C105.434 12.328 105.998 12.464 106.494 12.736C106.998 13.008 107.39 13.4 107.67 13.912C107.958 14.424 108.102 15.024 108.102 15.712C108.102 16.4 107.958 17 107.67 17.512C107.39 18.016 106.998 18.404 106.494 18.676C105.998 18.948 105.434 19.084 104.802 19.084C104.17 19.084 103.602 18.948 103.098 18.676C102.602 18.404 102.21 18.016 101.922 17.512C101.634 17 101.49 16.4 101.49 15.712C101.49 15.024 101.634 14.424 101.922 13.912C102.21 13.4 102.602 13.008 103.098 12.736C103.602 12.464 104.17 12.328 104.802 12.328ZM104.802 13.288C104.41 13.288 104.046 13.376 103.71 13.552C103.382 13.728 103.114 14 102.906 14.368C102.706 14.728 102.606 15.176 102.606 15.712C102.606 16.24 102.706 16.688 102.906 17.056C103.114 17.416 103.382 17.684 103.71 17.86C104.046 18.036 104.41 18.124 104.802 18.124C105.194 18.124 105.554 18.036 105.882 17.86C106.218 17.684 106.486 17.416 106.686 17.056C106.894 16.688 106.997 16.24 106.997 15.712C106.997 15.176 106.894 14.728 106.686 14.368C106.486 14 106.218 13.728 105.882 13.552C105.554 13.376 105.194 13.288 104.802 13.288ZM112.224 12.328C112.864 12.328 113.404 12.488 113.844 12.808C114.292 13.128 114.604 13.556 114.78 14.092V12.412H115.872V19H114.78V17.32C114.604 17.856 114.292 18.284 113.844 18.604C113.404 18.924 112.864 19.084 112.224 19.084C111.64 19.084 111.12 18.948 110.664 18.676C110.208 18.404 109.848 18.016 109.584 17.512C109.328 17 109.2 16.4 109.2 15.712C109.2 15.024 109.328 14.424 109.584 13.912C109.848 13.4 110.208 13.008 110.664 12.736C111.12 12.464 111.64 12.328 112.224 12.328ZM112.536 13.3C111.864 13.3 111.324 13.516 110.916 13.948C110.516 14.372 110.316 14.96 110.316 15.712C110.316 16.464 110.516 17.056 110.916 17.488C111.324 17.912 111.864 18.124 112.536 18.124C112.968 18.124 113.352 18.024 113.688 17.824C114.032 17.624 114.3 17.344 114.492 16.984C114.684 16.616 114.78 16.192 114.78 15.712C114.78 15.232 114.684 14.808 114.492 14.44C114.3 14.072 114.032 13.792 113.688 13.6C113.352 13.4 112.968 13.3 112.536 13.3ZM120.31 12.328C120.95 12.328 121.49 12.488 121.93 12.808C122.378 13.128 122.69 13.556 122.866 14.092V10.12H123.958V19H122.866V17.32C122.69 17.856 122.378 18.284 121.93 18.604C121.49 18.924 120.95 19.084 120.31 19.084C119.726 19.084 119.206 18.948 118.75 18.676C118.294 18.404 117.934 18.016 117.67 17.512C117.414 17 117.286 16.4 117.286 15.712C117.286 15.024 117.414 14.424 117.67 13.912C117.934 13.4 118.294 13.008 118.75 12.736C119.206 12.464 119.726 12.328 120.31 12.328ZM120.622 13.3C119.95 13.3 119.41 13.516 119.002 13.948C118.602 14.372 118.402 14.96 118.402 15.712C118.402 16.464 118.602 17.056 119.002 17.488C119.41 17.912 119.95 18.124 120.622 18.124C121.054 18.124 121.438 18.024 121.774 17.824C122.118 17.624 122.386 17.344 122.578 16.984C122.77 16.616 122.866 16.192 122.866 15.712C122.866 15.232 122.77 14.808 122.578 14.44C122.386 14.072 122.118 13.792 121.774 13.6C121.438 13.4 121.054 13.3 120.622 13.3ZM131.649 12.328C132.281 12.328 132.845 12.464 133.341 12.736C133.845 13.008 134.237 13.4 134.517 13.912C134.805 14.424 134.949 15.024 134.949 15.712C134.949 16.4 134.805 17 134.517 17.512C134.237 18.016 133.845 18.404 133.341 18.676C132.845 18.948 132.281 19.084 131.649 19.084C131.017 19.084 130.449 18.948 129.945 18.676C129.449 18.404 129.057 18.016 128.769 17.512C128.481 17 128.337 16.4 128.337 15.712C128.337 15.024 128.481 14.424 128.769 13.912C129.057 13.4 129.449 13.008 129.945 12.736C130.449 12.464 131.017 12.328 131.649 12.328ZM131.649 13.288C131.257 13.288 130.893 13.376 130.557 13.552C130.229 13.728 129.961 14 129.753 14.368C129.553 14.728 129.453 15.176 129.453 15.712C129.453 16.24 129.553 16.688 129.753 17.056C129.961 17.416 130.229 17.684 130.557 17.86C130.893 18.036 131.257 18.124 131.649 18.124C132.041 18.124 132.401 18.036 132.729 17.86C133.065 17.684 133.333 17.416 133.533 17.056C133.741 16.688 133.845 16.24 133.845 15.712C133.845 15.176 133.741 14.728 133.533 14.368C133.333 14 133.065 13.728 132.729 13.552C132.401 13.376 132.041 13.288 131.649 13.288ZM139.84 12.304C140.608 12.304 141.228 12.552 141.7 13.048C142.172 13.536 142.408 14.244 142.408 15.172V19H141.316V15.268C141.316 14.612 141.148 14.108 140.812 13.756C140.476 13.404 140.02 13.228 139.444 13.228C138.844 13.228 138.364 13.424 138.004 13.816C137.644 14.2 137.464 14.764 137.464 15.508V19H136.372V12.412H137.464V13.972C137.632 13.436 137.928 13.024 138.352 12.736C138.784 12.448 139.28 12.304 139.84 12.304Z" fill="white"/>
<g clip-path="url(#clip0_108_435)">
<path d="M38.3639 11.016C38.2959 10.94 35.8459 11.046 33.7139 13.36C31.5819 15.672 31.9099 18.324 31.9579 18.392C32.0059 18.46 34.9979 18.566 36.9079 15.876C38.8179 13.186 38.4319 11.094 38.3639 11.016ZM44.9919 34.482C44.8959 34.29 40.3419 32.014 40.7659 27.638C41.1899 23.26 44.1159 22.06 44.1619 21.93C44.2079 21.8 42.9678 20.35 41.6539 19.616C40.6891 19.0985 39.6213 18.802 38.5279 18.748C38.3119 18.742 37.5619 18.558 36.0199 18.98C35.0039 19.258 32.7139 20.158 32.0839 20.194C31.4519 20.23 29.5719 19.15 27.5499 18.864C26.2559 18.614 24.8839 19.126 23.9019 19.52C22.9219 19.912 21.0579 21.028 19.7539 23.994C18.4499 26.958 19.1319 31.654 19.6199 33.114C20.1079 34.572 20.8699 36.962 22.1659 38.706C23.3179 40.674 24.8459 42.04 25.4839 42.504C26.1219 42.968 27.9219 43.276 29.1699 42.638C30.1739 42.022 31.9859 41.668 32.7019 41.694C33.4159 41.72 34.8239 42.002 36.2659 42.772C37.4079 43.166 38.4879 43.002 39.5699 42.562C40.6519 42.12 42.2179 40.444 44.0459 37.046C44.7399 35.466 45.0559 34.612 44.9919 34.482Z" fill="white"/>
<path d="M38.3639 11.016C38.2959 10.94 35.8459 11.046 33.7139 13.36C31.5819 15.672 31.9099 18.324 31.9579 18.392C32.0059 18.46 34.9979 18.566 36.9079 15.876C38.8179 13.186 38.4319 11.094 38.3639 11.016ZM44.9919 34.482C44.8959 34.29 40.3419 32.014 40.7659 27.638C41.1899 23.26 44.1159 22.06 44.1619 21.93C44.2079 21.8 42.9678 20.35 41.6539 19.616C40.6891 19.0985 39.6213 18.802 38.5279 18.748C38.3119 18.742 37.5619 18.558 36.0199 18.98C35.0039 19.258 32.7139 20.158 32.0839 20.194C31.4519 20.23 29.5719 19.15 27.5499 18.864C26.2559 18.614 24.8839 19.126 23.9019 19.52C22.9219 19.912 21.0579 21.028 19.7539 23.994C18.4499 26.958 19.1319 31.654 19.6199 33.114C20.1079 34.572 20.8699 36.962 22.1659 38.706C23.3179 40.674 24.8459 42.04 25.4839 42.504C26.1219 42.968 27.9219 43.276 29.1699 42.638C30.1739 42.022 31.9859 41.668 32.7019 41.694C33.4159 41.72 34.8239 42.002 36.2659 42.772C37.4079 43.166 38.4879 43.002 39.5699 42.562C40.6519 42.12 42.2179 40.444 44.0459 37.046C44.7399 35.466 45.0559 34.612 44.9919 34.482Z" fill="white"/>
</g>
<path d="M72.892 37.444H67.798L66.898 40H64.216L68.896 27.436H71.794L76.456 40H73.774L72.892 37.444ZM72.208 35.518L70.336 30.154L68.464 35.518H72.208ZM83.7838 29.902C84.6238 29.902 85.3798 30.106 86.0518 30.514C86.7238 30.922 87.2458 31.516 87.6178 32.296C88.0018 33.064 88.1938 33.97 88.1938 35.014C88.1938 36.058 88.0018 36.97 87.6178 37.75C87.2458 38.518 86.7238 39.106 86.0518 39.514C85.3798 39.922 84.6238 40.126 83.7838 40.126C82.9438 40.126 82.2238 39.928 81.6238 39.532C81.0358 39.124 80.6158 38.584 80.3638 37.912V44.752H77.8258V30.028H80.3638V32.098C80.6158 31.426 81.0358 30.892 81.6238 30.496C82.2238 30.1 82.9438 29.902 83.7838 29.902ZM82.9918 32.116C82.2238 32.116 81.5878 32.38 81.0838 32.908C80.5918 33.424 80.3458 34.126 80.3458 35.014C80.3458 35.89 80.5918 36.592 81.0838 37.12C81.5878 37.636 82.2238 37.894 82.9918 37.894C83.7838 37.894 84.4198 37.642 84.8998 37.138C85.3798 36.622 85.6198 35.914 85.6198 35.014C85.6198 34.114 85.3798 33.406 84.8998 32.89C84.4198 32.374 83.7838 32.116 82.9918 32.116ZM95.9479 29.902C96.7879 29.902 97.5439 30.106 98.2159 30.514C98.8879 30.922 99.4099 31.516 99.7819 32.296C100.166 33.064 100.358 33.97 100.358 35.014C100.358 36.058 100.166 36.97 99.7819 37.75C99.4099 38.518 98.8879 39.106 98.2159 39.514C97.5439 39.922 96.7879 40.126 95.9479 40.126C95.1079 40.126 94.3879 39.928 93.7879 39.532C93.1999 39.124 92.7799 38.584 92.5279 37.912V44.752H89.9899V30.028H92.5279V32.098C92.7799 31.426 93.1999 30.892 93.7879 30.496C94.3879 30.1 95.1079 29.902 95.9479 29.902ZM95.1559 32.116C94.3879 32.116 93.7519 32.38 93.2479 32.908C92.7559 33.424 92.5099 34.126 92.5099 35.014C92.5099 35.89 92.7559 36.592 93.2479 37.12C93.7519 37.636 94.3879 37.894 95.1559 37.894C95.9479 37.894 96.5839 37.642 97.0639 37.138C97.5439 36.622 97.7839 35.914 97.7839 35.014C97.7839 34.114 97.5439 33.406 97.0639 32.89C96.5839 32.374 95.9479 32.116 95.1559 32.116ZM114.804 36.526C114.804 37.174 114.642 37.774 114.318 38.326C113.994 38.866 113.514 39.304 112.878 39.64C112.242 39.964 111.468 40.126 110.556 40.126C109.656 40.126 108.852 39.976 108.144 39.676C107.436 39.364 106.866 38.92 106.434 38.344C106.014 37.768 105.774 37.096 105.714 36.328H108.414C108.474 36.844 108.678 37.276 109.026 37.624C109.386 37.96 109.86 38.128 110.448 38.128C110.976 38.128 111.378 37.99 111.654 37.714C111.942 37.426 112.086 37.06 112.086 36.616C112.086 36.22 111.972 35.896 111.744 35.644C111.516 35.38 111.228 35.17 110.88 35.014C110.532 34.858 110.052 34.678 109.44 34.474C108.648 34.21 108 33.952 107.496 33.7C106.992 33.436 106.56 33.058 106.2 32.566C105.852 32.074 105.678 31.432 105.678 30.64C105.678 29.548 106.068 28.69 106.848 28.066C107.64 27.43 108.684 27.112 109.98 27.112C111.324 27.112 112.392 27.436 113.184 28.084C113.988 28.732 114.444 29.596 114.552 30.676H111.816C111.744 30.22 111.552 29.848 111.24 29.56C110.928 29.26 110.502 29.11 109.962 29.11C109.494 29.11 109.116 29.236 108.828 29.488C108.54 29.728 108.396 30.082 108.396 30.55C108.396 30.922 108.504 31.234 108.72 31.486C108.948 31.726 109.23 31.924 109.566 32.08C109.914 32.236 110.382 32.41 110.97 32.602C111.786 32.89 112.446 33.16 112.95 33.412C113.466 33.664 113.904 34.042 114.264 34.546C114.624 35.05 114.804 35.71 114.804 36.526ZM122.001 37.822V40H120.669C119.553 40 118.695 39.73 118.095 39.19C117.507 38.65 117.213 37.75 117.213 36.49V32.17H115.827V30.028H117.213V27.562H119.751V30.028H121.983V32.17H119.751V36.526C119.751 37.006 119.847 37.342 120.039 37.534C120.231 37.726 120.555 37.822 121.011 37.822H122.001ZM128.436 29.902C129.408 29.902 130.278 30.106 131.046 30.514C131.826 30.922 132.438 31.516 132.882 32.296C133.326 33.064 133.548 33.97 133.548 35.014C133.548 36.058 133.326 36.964 132.882 37.732C132.438 38.5 131.826 39.094 131.046 39.514C130.278 39.922 129.408 40.126 128.436 40.126C127.464 40.126 126.588 39.922 125.808 39.514C125.04 39.094 124.434 38.5 123.99 37.732C123.546 36.964 123.324 36.058 123.324 35.014C123.324 33.97 123.546 33.064 123.99 32.296C124.434 31.516 125.04 30.922 125.808 30.514C126.588 30.106 127.464 29.902 128.436 29.902ZM128.436 32.098C127.728 32.098 127.128 32.35 126.636 32.854C126.144 33.346 125.898 34.066 125.898 35.014C125.898 35.962 126.144 36.688 126.636 37.192C127.128 37.684 127.728 37.93 128.436 37.93C129.144 37.93 129.744 37.684 130.236 37.192C130.728 36.688 130.974 35.962 130.974 35.014C130.974 34.066 130.728 33.346 130.236 32.854C129.744 32.35 129.144 32.098 128.436 32.098ZM137.879 31.936C138.251 31.3 138.743 30.802 139.355 30.442C139.967 30.07 140.651 29.884 141.407 29.884V32.602H140.669C138.809 32.602 137.879 33.466 137.879 35.194V40H135.341V30.028H137.879V31.936ZM152.19 34.636C152.19 34.888 152.16 35.176 152.1 35.5H144.792C144.828 36.388 145.068 37.042 145.512 37.462C145.956 37.882 146.508 38.092 147.168 38.092C147.756 38.092 148.242 37.948 148.626 37.66C149.022 37.372 149.274 36.982 149.382 36.49H152.064C151.932 37.186 151.65 37.81 151.218 38.362C150.786 38.914 150.228 39.346 149.544 39.658C148.872 39.97 148.122 40.126 147.294 40.126C146.322 40.126 145.458 39.922 144.702 39.514C143.946 39.094 143.358 38.5 142.938 37.732C142.518 36.964 142.308 36.058 142.308 35.014C142.308 33.97 142.518 33.064 142.938 32.296C143.358 31.516 143.946 30.922 144.702 30.514C145.458 30.106 146.322 29.902 147.294 29.902C148.278 29.902 149.136 30.106 149.868 30.514C150.612 30.922 151.182 31.486 151.578 32.206C151.986 32.914 152.19 33.724 152.19 34.636ZM149.634 34.384C149.67 33.568 149.454 32.95 148.986 32.53C148.53 32.11 147.966 31.9 147.294 31.9C146.61 31.9 146.034 32.11 145.566 32.53C145.098 32.95 144.84 33.568 144.792 34.384H149.634Z" fill="white"/>
<defs>
<clipPath id="clip0_108_435">
<rect width="32" height="32" fill="white" transform="translate(16 11)"/>
</clipPath>
</defs>
</svg>
