<svg width="299" height="186" viewBox="0 0 299 186" fill="none" xmlns="http://www.w3.org/2000/svg">
<path d="M296.491 149.407C296.44 149.136 296.178 148.958 295.907 149.009L291.486 149.845C291.214 149.897 291.036 150.158 291.087 150.43C291.138 150.701 291.4 150.879 291.671 150.828L295.602 150.084L296.345 154.015C296.397 154.286 296.658 154.464 296.929 154.413C297.201 154.362 297.379 154.1 297.328 153.829L296.491 149.407ZM1.17408 2.15592C2.3488 2.68951 3.53395 3.26335 4.72926 3.8759L5.18532 2.98595C3.97687 2.36667 2.77754 1.78593 1.58764 1.24544L1.17408 2.15592ZM11.7809 7.8557C14.0171 9.22714 16.2843 10.7154 18.5807 12.3111L19.1513 11.4899C16.841 9.88458 14.5579 8.3857 12.3037 7.00324L11.7809 7.8557ZM25.1682 17.1147C27.2537 18.7032 29.3605 20.3688 31.4876 22.1049L32.1199 21.3302C29.985 19.5877 27.8693 17.9151 25.7742 16.3192L25.1682 17.1147ZM37.6962 27.3176C39.7208 29.0623 41.762 30.8628 43.8187 32.7136L44.4876 31.9702C42.4261 30.1151 40.3795 28.3099 38.349 26.5601L37.6962 27.3176ZM49.7963 38.1891C51.7484 40.0069 53.7132 41.8639 55.69 43.7558L56.3814 43.0333C54.4016 41.1387 52.4335 39.2785 50.4778 37.4573L49.7963 38.1891ZM61.5561 49.4339C63.4678 51.3037 65.3897 53.2012 67.3211 55.1224L68.0263 54.4134C66.0932 52.4905 64.1693 50.591 62.2553 48.719L61.5561 49.4339ZM73.0664 60.8756C74.9669 62.7902 76.8756 64.7235 78.7921 66.6718L79.505 65.9706C77.5877 64.0214 75.6778 62.087 73.7762 60.1711L73.0664 60.8756ZM84.4702 72.4623C86.3609 74.3954 88.2583 76.3394 90.1619 78.2909L90.8778 77.5927C88.974 75.6411 87.0762 73.6967 85.1851 71.7631L84.4702 72.4623ZM95.8324 84.1046C97.7224 86.0416 99.618 87.9826 101.518 89.9242L102.233 89.2247C100.333 87.2837 98.438 85.3431 96.5481 83.4062L95.8324 84.1046ZM107.214 95.7282C109.117 97.6607 111.024 99.5905 112.934 101.514L113.644 100.81C111.734 98.887 109.829 96.9583 107.927 95.0266L107.214 95.7282ZM118.677 107.265C120.605 109.184 122.536 111.094 124.469 112.991L125.169 112.277C123.238 110.382 121.309 108.474 119.383 106.557L118.677 107.265ZM130.299 118.661C132.259 120.55 134.221 122.423 136.185 124.276L136.871 123.549C134.91 121.698 132.951 119.828 130.993 117.941L130.299 118.661ZM142.146 129.832C144.146 131.673 146.147 133.489 148.148 135.277L148.815 134.531C146.817 132.747 144.82 130.934 142.823 129.096L142.146 129.832ZM154.29 140.674C156.36 142.461 158.43 144.213 160.498 145.928L161.136 145.158C159.073 143.448 157.009 141.699 154.944 139.917L154.29 140.674ZM166.812 151.045C168.974 152.754 171.134 154.418 173.291 156.031L173.889 155.23C171.74 153.623 169.588 151.965 167.432 150.26L166.812 151.045ZM179.87 160.796C182.125 162.374 184.375 163.89 186.621 165.341L187.163 164.501C184.929 163.057 182.688 161.548 180.444 159.977L179.87 160.796ZM193.591 169.634C195.976 171.029 198.354 172.342 200.725 173.567L201.184 172.678C198.83 171.462 196.467 170.157 194.096 168.77L193.591 169.634ZM208.047 177.073C210.593 178.193 213.129 179.201 215.654 180.09L215.986 179.147C213.487 178.267 210.974 177.268 208.449 176.157L208.047 177.073ZM223.492 182.467C226.181 183.146 228.856 183.677 231.514 184.049L231.652 183.059C229.033 182.692 226.394 182.169 223.737 181.498L223.492 182.467ZM239.66 184.68C242.402 184.715 245.123 184.564 247.822 184.215L247.694 183.223C245.044 183.566 242.37 183.714 239.673 183.68L239.66 184.68ZM255.842 182.565C258.437 181.824 261.008 180.883 263.552 179.73L263.139 178.819C260.64 179.952 258.115 180.876 255.567 181.603L255.842 182.565ZM270.741 175.85C272.965 174.451 275.165 172.876 277.339 171.116L276.71 170.338C274.565 172.074 272.398 173.627 270.209 175.004L270.741 175.85ZM283.399 165.663C285.287 163.787 287.154 161.76 289 159.577L288.236 158.931C286.408 161.094 284.56 163.099 282.694 164.954L283.399 165.663ZM293.97 153.245C294.789 152.124 295.603 150.97 296.413 149.782L295.587 149.219C294.783 150.398 293.975 151.543 293.162 152.655L293.97 153.245ZM296.983 149.314C296.88 148.772 296.357 148.415 295.814 148.518L286.971 150.191C286.428 150.293 286.072 150.817 286.174 151.359C286.277 151.902 286.8 152.259 287.343 152.156L295.203 150.669L296.69 158.529C296.793 159.072 297.316 159.429 297.859 159.326C298.402 159.223 298.758 158.7 298.656 158.157L296.983 149.314ZM0.9673 2.61116C2.13443 3.1413 3.31249 3.71169 4.50123 4.32087L5.41335 2.54097C4.19833 1.91832 2.99192 1.33414 1.79442 0.790206L0.9673 2.61116ZM11.5195 8.28193C13.7467 9.64786 16.0059 11.1309 18.2954 12.7217L19.4366 11.0793C17.1194 9.46915 14.8283 7.96498 12.5651 6.57701L11.5195 8.28193ZM24.8653 17.5125C26.9458 19.0972 29.0483 20.7594 31.1714 22.4923L32.4361 20.9429C30.2972 19.1972 28.1772 17.521 26.0771 15.9215L24.8653 17.5125ZM37.3698 27.6964C39.3915 29.4385 41.4299 31.2366 43.4842 33.0852L44.8221 31.5986C42.7581 29.7413 40.7089 27.9337 38.6754 26.1813L37.3698 27.6964ZM49.4556 38.555C51.4058 40.3711 53.3689 42.2266 55.3442 44.117L56.7271 42.6721C54.7459 40.776 52.7761 38.9142 50.8186 37.0914L49.4556 38.555ZM61.2065 49.7913C63.1171 51.6601 65.038 53.5566 66.9685 55.4769L68.379 54.0589C66.4449 52.1351 64.52 50.2347 62.605 48.3615L61.2065 49.7913ZM72.7116 61.2279C74.6114 63.1418 76.5196 65.0745 78.4356 67.0224L79.8615 65.6199C77.9437 63.6703 76.0333 61.7354 74.131 59.8189L72.7116 61.2279ZM84.1127 72.8119C86.0032 74.7448 87.9004 76.6886 89.804 78.6401L91.2357 77.2435C89.3319 75.2919 87.4339 73.3473 85.5426 71.4135L84.1127 72.8119ZM95.4745 84.4537C97.3647 86.3909 99.2604 88.3321 101.161 90.274L102.59 88.875C100.691 86.9342 98.7958 84.9938 96.906 83.057L95.4745 84.4537ZM106.858 96.0789C108.761 98.0119 110.668 99.9422 112.579 101.867L113.999 100.457C112.09 98.5353 110.185 96.6071 108.283 94.6758L106.858 96.0789ZM118.324 107.62C120.253 109.539 122.185 111.45 124.119 113.348L125.52 111.92C123.589 110.026 121.661 108.119 119.735 106.202L118.324 107.62ZM129.952 119.021C131.913 120.912 133.877 122.786 135.842 124.64L137.214 123.185C135.255 121.336 133.297 119.467 131.34 117.581L129.952 119.021ZM141.808 130.2C143.809 132.042 145.812 133.86 147.815 135.65L149.148 134.159C147.152 132.376 145.157 130.564 143.162 128.729L141.808 130.2ZM153.964 141.052C156.036 142.841 158.108 144.596 160.179 146.313L161.455 144.773C159.395 143.065 157.333 141.319 155.271 139.538L153.964 141.052ZM166.502 151.437C168.667 153.149 170.83 154.816 172.991 156.432L174.189 154.83C172.043 153.226 169.894 151.57 167.743 149.868L166.502 151.437ZM179.584 161.206C181.843 162.786 184.098 164.307 186.349 165.761L187.435 164.081C185.205 162.641 182.97 161.135 180.73 159.567L179.584 161.206ZM193.339 170.065C195.73 171.464 198.117 172.782 200.496 174.011L201.414 172.234C199.068 171.022 196.712 169.722 194.348 168.339L193.339 170.065ZM207.846 177.53C210.402 178.655 212.95 179.668 215.488 180.562L216.152 178.676C213.665 177.8 211.165 176.805 208.651 175.7L207.846 177.53ZM223.37 182.952C226.075 183.635 228.767 184.17 231.445 184.544L231.722 182.563C229.121 182.2 226.5 181.68 223.86 181.013L223.37 182.952ZM239.654 185.18C242.418 185.215 245.163 185.063 247.886 184.711L247.63 182.728C245.004 183.067 242.353 183.214 239.679 183.18L239.654 185.18ZM255.979 183.046C258.598 182.298 261.192 181.349 263.758 180.185L262.932 178.364C260.456 179.487 257.954 180.402 255.43 181.123L255.979 183.046ZM271.008 176.273C273.249 174.864 275.465 173.276 277.654 171.504L276.396 169.95C274.265 171.674 272.114 173.215 269.943 174.581L271.008 176.273ZM283.751 166.018C285.65 164.131 287.527 162.093 289.382 159.9L287.855 158.608C286.035 160.76 284.197 162.755 282.341 164.599L283.751 166.018ZM294.373 153.54C295.196 152.414 296.013 151.256 296.826 150.064L295.174 148.937C294.373 150.111 293.568 151.252 292.759 152.36L294.373 153.54Z" fill="#FA9B0D"/>
</svg>
