<svg width="14" height="10" viewBox="0 0 14 10" fill="none" xmlns="http://www.w3.org/2000/svg">
<path fill-rule="evenodd" clip-rule="evenodd" d="M0 5.30727C0 5.17466 0.0526784 5.04749 0.146447 4.95372C0.240215 4.85995 0.367392 4.80727 0.5 4.80727H12.293L9.146 1.66127C9.05211 1.56739 8.99937 1.44005 8.99937 1.30727C8.99937 1.1745 9.05211 1.04716 9.146 0.953272C9.23989 0.859385 9.36722 0.806641 9.5 0.806641C9.63278 0.806641 9.76011 0.859385 9.854 0.953272L13.854 4.95327C13.9006 4.99972 13.9375 5.05489 13.9627 5.11564C13.9879 5.17638 14.0009 5.2415 14.0009 5.30727C14.0009 5.37304 13.9879 5.43816 13.9627 5.49891C13.9375 5.55965 13.9006 5.61483 13.854 5.66127L9.854 9.66127C9.76011 9.75516 9.63278 9.8079 9.5 9.8079C9.36722 9.8079 9.23989 9.75516 9.146 9.66127C9.05211 9.56739 8.99937 9.44005 8.99937 9.30727C8.99937 9.1745 9.05211 9.04716 9.146 8.95327L12.293 5.80727H0.5C0.367392 5.80727 0.240215 5.75459 0.146447 5.66083C0.0526784 5.56706 0 5.43988 0 5.30727Z" fill="#FA9B0D"/>
</svg>
