<svg width="514" height="106" viewBox="0 0 514 106" fill="none" xmlns="http://www.w3.org/2000/svg">
<path d="M510.477 52.3545C510.397 52.0903 510.118 51.9413 509.854 52.0216L505.548 53.3309C505.284 53.4112 505.135 53.6905 505.215 53.9547C505.296 54.2189 505.575 54.368 505.839 54.2876L509.666 53.1238L510.83 56.9508C510.91 57.215 511.19 57.364 511.454 57.2837C511.718 57.2034 511.867 56.9241 511.787 56.6599L510.477 52.3545ZM0.857865 1.97834C2.13203 2.35567 3.40569 2.73373 4.67885 3.11249L4.96399 2.15401C3.69045 1.77513 2.41638 1.39695 1.14184 1.01949L0.857865 1.97834ZM12.3114 5.3931C14.8534 6.15589 17.3932 6.92117 19.9305 7.68863L20.2201 6.73145C17.682 5.96379 15.1416 5.19831 12.5988 4.4353L12.3114 5.3931ZM27.5541 10.003C30.0962 10.7775 32.6357 11.554 35.1724 12.332L35.4656 11.3759C32.9284 10.5977 30.3883 9.82114 27.8455 9.04643L27.5541 10.003ZM42.7738 14.6705C45.3158 15.4548 47.8547 16.2404 50.3905 17.0271L50.6868 16.072C48.1506 15.2852 45.6111 14.4994 43.0687 13.7149L42.7738 14.6705ZM57.9963 19.3922C60.5283 20.1814 63.0568 20.9713 65.5817 21.7615L65.8804 20.8071C63.3551 20.0168 60.8262 19.2268 58.2939 18.4375L57.9963 19.3922ZM73.1979 24.1495C75.7335 24.9459 78.2652 25.7423 80.7929 26.5385L81.0934 25.5847C78.5654 24.7884 76.0334 23.9919 73.4976 23.1955L73.1979 24.1495ZM88.3743 28.9293C90.9161 29.7318 93.4537 30.5337 95.9868 31.3347L96.2883 30.3812C93.7551 29.5802 91.2174 28.7783 88.6753 27.9757L88.3743 28.9293ZM103.572 33.7347C106.106 34.5367 108.635 35.3375 111.16 36.1368L111.461 35.1835C108.937 34.3842 106.408 33.5834 103.874 32.7813L103.572 33.7347ZM118.768 38.5456C121.299 39.3467 123.824 40.1459 126.345 40.9429L126.646 39.9894C124.126 39.1925 121.6 38.3933 119.07 37.5922L118.768 38.5456ZM133.947 43.345C136.488 44.1471 139.023 44.9464 141.552 45.7428L141.852 44.789C139.324 43.9927 136.789 43.1934 134.248 42.3914L133.947 43.345ZM149.121 48.1226C151.67 48.9229 154.213 49.7197 156.749 50.5127L157.048 49.5583C154.512 48.7654 151.969 47.9686 149.42 47.1685L149.121 48.1226ZM164.35 52.8836C166.886 53.6726 169.415 54.4573 171.936 55.2376L172.232 54.2822C169.711 53.5022 167.182 52.7176 164.647 51.9287L164.35 52.8836ZM179.577 57.5941C182.117 58.3746 184.649 59.1501 187.173 59.9202L187.465 58.9637C184.941 58.1938 182.41 57.4186 179.871 56.6382L179.577 57.5941ZM194.802 62.2377C197.357 63.0104 199.904 63.7771 202.442 64.5373L202.729 63.5793C200.192 62.8194 197.646 62.053 195.092 61.2805L194.802 62.2377ZM210.031 66.7982C212.603 67.5602 215.166 68.3151 217.719 69.0625L218 68.1028C215.448 67.3557 212.886 66.6011 210.315 65.8394L210.031 66.7982ZM225.354 71.2823C227.915 72.0218 230.467 72.7531 233.008 73.4758L233.281 72.514C230.742 71.7916 228.192 71.0607 225.632 70.3215L225.354 71.2823ZM240.696 75.6445C243.249 76.3583 245.79 77.0628 248.321 77.7576L248.586 76.7933C246.057 76.099 243.517 75.3949 240.966 74.6815L240.696 75.6445ZM256.063 79.8613C258.634 80.5526 261.193 81.2332 263.741 81.9027L263.995 80.9355C261.449 80.2666 258.892 79.5864 256.322 78.8956L256.063 79.8613ZM271.459 83.9056C274.052 84.5696 276.631 85.2212 279.197 85.8599L279.438 84.8895C276.875 84.2514 274.298 83.6004 271.708 82.9369L271.459 83.9056ZM286.896 87.7469C289.511 88.3775 292.111 88.9939 294.697 89.5954L294.924 88.6214C292.341 88.0205 289.743 87.4048 287.13 86.7748L286.896 87.7469ZM302.408 91.3547C305.039 91.9426 307.653 92.5142 310.25 93.0688L310.459 92.0908C307.865 91.5369 305.254 90.9661 302.626 90.3788L302.408 91.3547ZM318.017 94.6859C320.652 95.22 323.268 95.7354 325.866 96.2315L326.053 95.2493C323.459 94.7539 320.847 94.2392 318.216 93.7059L318.017 94.6859ZM333.688 97.6762C336.33 98.147 338.952 98.5966 341.553 99.024L341.715 98.0372C339.119 97.6105 336.501 97.1618 333.864 96.6917L333.688 97.6762ZM349.426 100.259C352.08 100.655 354.711 101.026 357.32 101.372L357.451 100.38C354.848 100.035 352.222 99.6647 349.574 99.2697L349.426 100.259ZM365.233 102.35C367.903 102.655 370.548 102.932 373.166 103.18L373.26 102.184C370.649 101.937 368.011 101.661 365.347 101.356L365.233 102.35ZM381.103 103.844C383.793 104.039 386.453 104.2 389.083 104.327L389.131 103.328C386.509 103.202 383.857 103.041 381.176 102.846L381.103 103.844ZM397.016 104.605C399.726 104.663 402.401 104.681 405.041 104.657L405.032 103.657C402.403 103.681 399.738 103.663 397.038 103.605L397.016 104.605ZM412.949 104.459C415.666 104.344 418.343 104.182 420.979 103.971L420.899 102.974C418.276 103.185 415.612 103.346 412.907 103.46L412.949 104.459ZM428.907 103.171C431.58 102.843 434.207 102.459 436.786 102.018L436.618 101.032C434.054 101.471 431.443 101.852 428.785 102.178L428.907 103.171ZM444.659 100.457C447.285 99.8611 449.857 99.1988 452.373 98.4676L452.094 97.5073C449.598 98.2327 447.045 98.8901 444.438 99.4816L444.659 100.457ZM459.961 95.9909C462.502 95.065 464.979 94.0595 467.392 92.9719L466.981 92.0602C464.591 93.1373 462.137 94.1336 459.618 95.0514L459.961 95.9909ZM474.538 89.4014C476.884 88.1072 479.159 86.7232 481.361 85.2467L480.804 84.4161C478.626 85.8762 476.376 87.2452 474.055 88.5258L474.538 89.4014ZM487.806 80.4898C489.871 78.8146 491.861 77.0433 493.773 75.1731L493.074 74.4581C491.184 76.3066 489.217 78.0574 487.176 79.7132L487.806 80.4898ZM499.228 69.3206C500.944 67.3008 502.585 65.1843 504.149 62.9687L503.331 62.3921C501.785 64.5836 500.162 66.6764 498.466 68.6732L499.228 69.3206ZM508.455 56.2828C509.135 55.1239 509.797 53.9415 510.44 52.7354L509.558 52.2646C508.921 53.4589 508.265 54.6295 507.592 55.7766L508.455 56.2828ZM510.956 52.2091C510.795 51.6807 510.237 51.3826 509.708 51.5433L501.097 54.1618C500.569 54.3224 500.271 54.8811 500.432 55.4095C500.592 55.9378 501.151 56.2359 501.679 56.0752L509.333 53.7477L511.661 61.4016C511.822 61.93 512.38 62.2281 512.909 62.0674C513.437 61.9067 513.735 61.3481 513.574 60.8197L510.956 52.2091ZM0.71591 2.45775C1.98984 2.83503 3.26333 3.21303 4.53628 3.59173L5.10656 1.67476C3.83282 1.29583 2.55857 0.917586 1.28379 0.54008L0.71591 2.45775ZM12.1677 5.87201C14.7093 6.63469 17.2488 7.39986 19.7858 8.16721L20.3648 6.25287C17.8265 5.4851 15.2856 4.71951 12.7425 3.95639L12.1677 5.87201ZM27.4084 10.4813C29.9502 11.2557 32.4894 12.0321 35.0258 12.81L35.6122 10.8979C33.0747 10.1196 30.5343 9.34294 27.9912 8.56814L27.4084 10.4813ZM42.6264 15.1483C45.1681 15.9325 47.7068 16.7181 50.2424 17.5046L50.8349 15.5944C48.2985 14.8076 45.7588 14.0217 43.2161 13.2372L42.6264 15.1483ZM57.8475 19.8696C60.3793 20.6587 62.9076 21.4485 65.4323 22.2387L66.0297 20.33C63.5043 19.5396 60.9752 18.7495 58.4427 17.9602L57.8475 19.8696ZM73.0481 24.6265C75.5835 25.4229 78.1151 26.2193 80.6427 27.0154L81.2436 25.1078C78.7155 24.3115 76.1834 23.5149 73.6474 22.7184L73.0481 24.6265ZM88.2238 29.4061C90.7655 30.2086 93.303 31.0105 95.836 31.8114L96.439 29.9045C93.9058 29.1034 91.368 28.3015 88.8258 27.4989L88.2238 29.4061ZM103.421 34.2114C105.955 35.0134 108.484 35.8142 111.009 36.6135L111.612 34.7068C109.088 33.9075 106.559 33.1067 104.025 32.3046L103.421 34.2114ZM118.617 39.0223C121.148 39.8234 123.674 40.6226 126.194 41.4196L126.797 39.5127C124.277 38.7158 121.751 37.9166 119.22 37.1155L118.617 39.0223ZM133.797 43.8218C136.338 44.6239 138.873 45.4233 141.402 46.2197L142.002 44.3121C139.474 43.5158 136.939 42.7166 134.399 41.9146L133.797 43.8218ZM148.971 48.5996C151.52 49.3999 154.064 50.1968 156.6 50.9899L157.197 49.081C154.661 48.2882 152.119 47.4915 149.57 46.6914L148.971 48.5996ZM164.202 53.361C166.737 54.1501 169.267 54.9349 171.788 55.7152L172.38 53.8046C169.859 53.0246 167.331 52.2401 164.796 51.4513L164.202 53.361ZM179.43 58.072C181.97 58.8526 184.503 59.6282 187.027 60.3984L187.611 58.4854C185.088 57.7157 182.556 56.9405 180.018 56.1602L179.43 58.072ZM194.658 62.7163C197.213 63.4891 199.76 64.2559 202.299 65.0163L202.873 63.1004C200.336 62.3406 197.79 61.5743 195.237 60.802L194.658 62.7163ZM209.889 67.2776C212.461 68.0398 215.025 68.7948 217.579 69.5424L218.141 67.6229C215.589 66.876 213.027 66.1216 210.457 65.36L209.889 67.2776ZM225.215 71.7627C227.777 72.5023 230.329 73.2338 232.871 73.9568L233.418 72.033C230.879 71.3109 228.33 70.5801 225.77 69.8411L225.215 71.7627ZM240.562 76.1261C243.115 76.84 245.657 77.5448 248.189 78.2398L248.718 76.3111C246.19 75.617 243.65 74.9131 241.1 74.2L240.562 76.1261ZM255.933 80.3441C258.505 81.0357 261.065 81.7166 263.614 82.3862L264.122 80.4519C261.577 79.7833 259.021 79.1034 256.452 78.4127L255.933 80.3441ZM271.335 84.39C273.929 85.0543 276.509 85.7062 279.076 86.3451L279.559 84.4044C276.997 83.7665 274.421 83.1157 271.832 82.4525L271.335 84.39ZM286.779 88.233C289.395 88.8639 291.997 89.4806 294.584 90.0824L295.037 88.1344C292.455 87.5339 289.859 86.9184 287.248 86.2887L286.779 88.233ZM302.299 91.8427C304.931 92.4309 307.547 93.0028 310.146 93.5577L310.563 91.6018C307.971 91.0483 305.361 90.4778 302.736 89.8908L302.299 91.8427ZM317.918 95.1759C320.554 95.7104 323.172 96.2262 325.772 96.7226L326.147 94.7581C323.555 94.2631 320.944 93.7488 318.315 93.2158L317.918 95.1759ZM333.6 98.1684C336.244 98.6397 338.868 99.0895 341.472 99.5174L341.796 97.5438C339.202 97.1175 336.587 96.6692 333.951 96.1995L333.6 98.1684ZM349.352 100.753C352.009 101.149 354.643 101.521 357.254 101.867L357.517 99.8846C354.917 99.5399 352.293 99.1698 349.647 98.7752L349.352 100.753ZM365.176 102.847C367.85 103.153 370.497 103.43 373.119 103.677L373.307 101.686C370.699 101.44 368.064 101.164 365.404 100.86L365.176 102.847ZM381.067 104.342C383.76 104.538 386.425 104.699 389.059 104.826L389.155 102.829C386.538 102.703 383.89 102.542 381.212 102.348L381.067 104.342ZM397.006 105.105C399.72 105.163 402.4 105.181 405.045 105.157L405.028 103.157C402.403 103.181 399.743 103.163 397.049 103.105L397.006 105.105ZM412.97 104.958C415.693 104.844 418.376 104.681 421.019 104.47L420.859 102.476C418.243 102.686 415.585 102.847 412.886 102.96L412.97 104.958ZM428.968 103.667C431.648 103.338 434.283 102.953 436.871 102.511L436.533 100.539C433.978 100.976 431.375 101.357 428.724 101.682L428.968 103.667ZM444.769 100.944C447.405 100.347 449.986 99.6818 452.513 98.9477L451.955 97.0272C449.468 97.7497 446.925 98.4046 444.327 98.994L444.769 100.944ZM460.132 96.4607C462.684 95.5307 465.173 94.5206 467.597 93.4277L466.775 91.6044C464.398 92.6762 461.955 93.6679 459.447 94.5816L460.132 96.4607ZM474.78 89.8392C477.138 88.5382 479.425 87.1467 481.639 85.662L480.526 84.0008C478.36 85.4526 476.122 86.8142 473.813 88.088L474.78 89.8392ZM488.121 80.8781C490.198 79.1933 492.199 77.4117 494.123 75.5305L492.724 74.1007C490.845 75.9383 488.89 77.6787 486.861 79.3249L488.121 80.8781ZM499.609 69.6444C501.335 67.613 502.985 65.4847 504.557 63.257L502.923 62.1037C501.385 64.2832 499.772 66.3642 498.085 68.3494L499.609 69.6444ZM508.886 56.5359C509.569 55.3711 510.235 54.1828 510.881 52.9708L509.117 52.0292C508.483 53.2177 507.831 54.3823 507.161 55.5235L508.886 56.5359Z" fill="#FA9B0D"/>
</svg>
