<svg width="478" height="178" viewBox="0 0 478 178" fill="none" xmlns="http://www.w3.org/2000/svg">
<path d="M2.5522 131.003C2.27756 130.974 2.03158 131.173 2.00273 131.448L1.53302 135.923C1.5042 136.198 1.70349 136.444 1.97809 136.473C2.25273 136.502 2.49874 136.302 2.52756 136.028L2.94509 132.049L6.92323 132.467C7.19787 132.496 7.44388 132.297 7.4727 132.022C7.50151 131.747 7.30226 131.501 7.02762 131.472L2.5522 131.003ZM477.338 1.24425C476.078 1.68032 474.818 2.12231 473.559 2.57008L473.894 3.5123C475.15 3.06547 476.408 2.62442 477.665 2.18929L477.338 1.24425ZM466.008 5.32501C463.497 6.26425 460.988 7.22544 458.482 8.20749L458.847 9.13858C461.348 8.15836 463.852 7.19901 466.358 6.26162L466.008 5.32501ZM451.03 11.19C448.549 12.204 446.07 13.2374 443.593 14.2891L443.984 15.2096C446.457 14.1595 448.932 13.1279 451.409 12.1157L451.03 11.19ZM436.221 17.4762C433.771 18.5541 431.323 19.649 428.878 20.7599L429.292 21.6703C431.733 20.5611 434.177 19.4678 436.624 18.3916L436.221 17.4762ZM421.572 24.1293C419.149 25.2629 416.73 26.4112 414.313 27.5732L414.746 28.4745C417.16 27.314 419.576 26.1671 421.996 25.035L421.572 24.1293ZM407.072 31.099C404.673 32.2812 402.278 33.4758 399.886 34.682L400.336 35.575C402.726 34.3701 405.118 33.1767 407.514 31.9959L407.072 31.099ZM392.719 38.3341C390.338 39.5601 387.96 40.7964 385.585 42.0422L386.05 42.9278C388.422 41.6831 390.798 40.4479 393.177 39.2232L392.719 38.3341ZM378.48 45.8023C376.116 47.0642 373.755 48.3346 371.398 49.6124L371.875 50.4915C374.23 49.2147 376.589 47.9454 378.951 46.6845L378.48 45.8023ZM364.342 53.4643C361.994 54.755 359.65 56.0522 357.31 57.3547L357.796 58.2285C360.135 56.9268 362.478 55.6305 364.824 54.3406L364.342 53.4643ZM350.292 61.2823C347.956 62.5968 345.624 63.9157 343.296 65.238L343.789 66.1076C346.116 64.7858 348.447 63.4676 350.782 62.1539L350.292 61.2823ZM336.315 69.2199C333.986 70.5536 331.661 71.8897 329.341 73.2273L329.84 74.0936C332.16 72.7565 334.483 71.4209 336.812 70.0877L336.315 69.2199ZM322.394 77.2432C320.068 78.5912 317.747 79.9395 315.43 81.2873L315.933 82.1516C318.249 80.8041 320.57 79.456 322.895 78.1085L322.394 77.2432ZM308.492 85.3294C306.173 86.6825 303.858 88.0339 301.548 89.3826L302.053 90.2461C304.362 88.8975 306.677 87.5462 308.996 86.1932L308.492 85.3294ZM294.605 93.4372C292.29 94.7882 289.982 96.1353 287.678 97.4775L288.182 98.3415C290.485 96.9991 292.794 95.6518 295.109 94.3008L294.605 93.4372ZM280.713 101.53C278.397 102.875 276.087 104.214 273.782 105.546L274.283 106.411C276.588 105.079 278.899 103.74 281.215 102.395L280.713 101.53ZM266.798 109.569C264.47 110.905 262.148 112.233 259.833 113.551L260.328 114.42C262.644 113.101 264.967 111.773 267.296 110.436L266.798 109.569ZM252.838 117.513C250.493 118.834 248.155 120.144 245.823 121.441L246.31 122.315C248.643 121.017 250.983 119.706 253.329 118.384L252.838 117.513ZM238.81 125.316C236.442 126.615 234.082 127.899 231.729 129.167L232.203 130.047C234.558 128.778 236.921 127.493 239.291 126.193L238.81 125.316ZM224.685 132.928C222.289 134.195 219.902 135.443 217.522 136.672L217.981 137.561C220.363 136.33 222.754 135.08 225.152 133.812L224.685 132.928ZM210.41 140.3C207.989 141.519 205.577 142.716 203.174 143.89L203.613 144.788C206.02 143.613 208.435 142.414 210.86 141.194L210.41 140.3ZM195.971 147.35C193.521 148.507 191.081 149.637 188.651 150.74L189.064 151.651C191.499 150.546 193.944 149.413 196.398 148.255L195.971 147.35ZM181.345 153.984C178.859 155.062 176.384 156.109 173.921 157.123L174.301 158.048C176.771 157.031 179.252 155.982 181.743 154.901L181.345 153.984ZM166.503 160.087C163.973 161.067 161.456 162.009 158.951 162.912L159.29 163.853C161.802 162.947 164.327 162.002 166.864 161.02L166.503 160.087ZM151.416 165.519C148.836 166.374 146.27 167.184 143.718 167.946L144.004 168.904C146.566 168.139 149.142 167.326 151.731 166.469L151.416 165.519ZM136.06 170.102C133.429 170.796 130.814 171.436 128.215 172.02L128.434 172.995C131.046 172.409 133.673 171.766 136.315 171.069L136.06 170.102ZM120.392 173.614C117.732 174.098 115.089 174.52 112.465 174.875L112.599 175.866C115.239 175.509 117.897 175.085 120.571 174.597L120.392 173.614ZM104.502 175.754C101.828 175.979 99.1748 176.131 96.5413 176.206L96.5699 177.206C99.2226 177.13 101.895 176.977 104.586 176.75L104.502 175.754ZM88.5095 176.193C85.8329 176.105 83.1781 175.932 80.5455 175.671L80.4467 176.666C83.1019 176.93 85.7788 177.104 88.4767 177.192L88.5095 176.193ZM72.6187 174.602C69.9895 174.151 67.3837 173.605 64.8015 172.96L64.5593 173.93C67.1661 174.581 69.7964 175.132 72.4496 175.587L72.6187 174.602ZM57.1265 170.727C54.6134 169.889 52.1238 168.95 49.6582 167.908L49.2688 168.829C51.7585 169.882 54.2725 170.829 56.8102 171.676L57.1265 170.727ZM42.4403 164.52C40.0854 163.301 37.7535 161.981 35.4449 160.555L34.9194 161.406C37.2493 162.845 39.6033 164.178 41.9808 165.408L42.4403 164.52ZM28.8556 156.151C26.7153 154.608 24.5962 152.968 22.4986 151.229L21.8602 151.998C23.9749 153.752 26.1119 155.406 28.2709 156.962L28.8556 156.151ZM16.5384 145.959C14.6281 144.163 12.7366 142.278 10.8642 140.302L10.1384 140.99C12.0236 142.979 13.9287 144.878 15.8534 146.688L16.5384 145.959ZM5.52034 134.353C4.63858 133.318 3.76131 132.263 2.88853 131.185L2.1115 131.815C2.98945 132.899 3.87208 133.961 4.75937 135.001L5.52034 134.353ZM2.6044 130.505C2.05513 130.448 1.56314 130.846 1.50548 131.396L0.566054 140.346C0.508399 140.896 0.906926 141.388 1.4562 141.445C2.00548 141.503 2.49747 141.104 2.55513 140.555L3.39016 132.599L11.3465 133.434C11.8957 133.492 12.3878 133.093 12.4454 132.544C12.503 131.995 12.1045 131.503 11.5552 131.445L2.6044 130.505ZM477.175 0.771726C475.913 1.20827 474.652 1.65073 473.391 2.09897L474.061 3.98341C475.317 3.53705 476.573 3.09647 477.829 2.66181L477.175 0.771726ZM465.833 4.8567C463.319 5.79687 460.808 6.75898 458.299 7.74194L459.029 9.60412C461.529 8.62481 464.03 7.66639 466.534 6.72993L465.833 4.8567ZM450.841 10.7271C448.358 11.742 445.877 12.7763 443.398 13.8289L444.18 15.6698C446.65 14.6206 449.123 13.5898 451.598 12.5785L450.841 10.7271ZM436.02 17.0185C433.568 18.0973 431.118 19.193 428.671 20.3046L429.498 22.1255C431.938 21.0171 434.381 19.9247 436.825 18.8493L436.02 17.0185ZM421.36 23.6764C418.936 24.8108 416.514 25.9599 414.096 27.1226L414.963 28.9251C417.375 27.7653 419.79 26.6192 422.208 25.4879L421.36 23.6764ZM406.851 30.6505C404.451 31.8334 402.054 33.0287 399.661 34.2356L400.561 36.0214C402.949 34.8172 405.341 33.6245 407.735 32.4444L406.851 30.6505ZM392.49 37.8896C390.108 39.1161 387.728 40.3531 385.353 41.5995L386.282 43.3705C388.653 42.1264 391.028 40.8919 393.405 39.6678L392.49 37.8896ZM378.245 45.3612C375.88 46.6237 373.518 47.8945 371.16 49.1728L372.113 50.9311C374.467 49.6548 376.825 48.386 379.187 47.1256L378.245 45.3612ZM364.102 53.0261C361.753 54.3173 359.408 55.6149 357.066 56.9178L358.039 58.6654C360.377 57.3641 362.719 56.0682 365.065 54.7788L364.102 53.0261ZM350.047 60.8466C347.71 62.1614 345.377 63.4806 343.049 64.8033L344.036 66.5423C346.363 65.2209 348.693 63.903 351.027 62.5896L350.047 60.8466ZM336.066 68.786C333.737 70.12 331.412 71.4563 329.091 72.7941L330.09 74.5268C332.409 73.1899 334.732 71.8545 337.06 70.5216L336.066 68.786ZM322.143 76.8107C319.817 78.1587 317.495 79.5072 315.179 80.8551L316.185 82.5838C318.5 81.2364 320.821 79.8885 323.146 78.5411L322.143 76.8107ZM308.24 84.8975C305.921 86.2507 303.606 87.6021 301.296 88.9508L302.305 90.6779C304.614 89.3293 306.929 87.978 309.248 86.6251L308.24 84.8975ZM294.353 93.0054C292.038 94.3563 289.73 95.7034 287.426 97.0455L288.433 98.7735C290.737 97.431 293.046 96.0837 295.361 94.7326L294.353 93.0054ZM280.462 101.097C278.146 102.442 275.836 103.781 273.532 105.113L274.533 106.844C276.838 105.512 279.15 104.172 281.466 102.827L280.462 101.097ZM266.549 109.135C264.222 110.471 261.9 111.799 259.586 113.116L260.575 114.855C262.892 113.536 265.216 112.207 267.545 110.87L266.549 109.135ZM252.593 117.077C250.249 118.398 247.911 119.707 245.58 121.004L246.553 122.752C248.887 121.453 251.227 120.142 253.575 118.82L252.593 117.077ZM238.569 124.878C236.203 126.176 233.843 127.459 231.492 128.727L232.441 130.487C234.797 129.217 237.16 127.932 239.531 126.631L238.569 124.878ZM224.451 132.486C222.057 133.752 219.671 135 217.293 136.228L218.211 138.005C220.594 136.773 222.986 135.523 225.386 134.254L224.451 132.486ZM210.185 139.854C207.766 141.072 205.356 142.268 202.955 143.441L203.832 145.238C206.241 144.061 208.658 142.861 211.084 141.64L210.185 139.854ZM195.757 146.898C193.31 148.054 190.872 149.183 188.445 150.285L189.271 152.106C191.708 151 194.155 149.866 196.611 148.707L195.757 146.898ZM181.146 153.525C178.663 154.602 176.191 155.648 173.73 156.661L174.491 158.51C176.964 157.492 179.448 156.442 181.942 155.36L181.146 153.525ZM166.322 159.621C163.796 160.599 161.282 161.54 158.781 162.442L159.46 164.323C161.976 163.416 164.504 162.47 167.044 161.486L166.322 159.621ZM151.259 165.045C148.683 165.898 146.122 166.706 143.575 167.467L144.148 169.383C146.714 168.616 149.294 167.802 151.888 166.943L151.259 165.045ZM135.932 169.619C133.307 170.311 130.698 170.95 128.105 171.532L128.544 173.483C131.161 172.895 133.794 172.251 136.442 171.553L135.932 169.619ZM120.302 173.122C117.649 173.605 115.014 174.025 112.398 174.38L112.666 176.362C115.314 176.003 117.979 175.578 120.661 175.089L120.302 173.122ZM104.46 175.255C101.795 175.48 99.1509 175.631 96.527 175.706L96.5842 177.705C99.2465 177.629 101.928 177.476 104.628 177.248L104.46 175.255ZM88.5258 175.693C85.8599 175.606 83.2161 175.434 80.5949 175.173L80.3973 177.164C83.0639 177.428 85.7517 177.603 88.4603 177.692L88.5258 175.693ZM72.7032 174.109C70.0861 173.66 67.4925 173.116 64.9226 172.475L64.4382 174.415C67.0574 175.069 69.6998 175.623 72.365 176.08L72.7032 174.109ZM57.2847 170.253C54.7839 169.419 52.3065 168.485 49.853 167.447L49.074 169.289C51.5759 170.347 54.102 171.3 56.652 172.15L57.2847 170.253ZM42.67 164.075C40.3265 162.863 38.0055 161.549 35.7076 160.13L34.6567 161.831C36.9973 163.277 39.3622 164.616 41.751 165.852L42.67 164.075ZM29.1479 155.745C27.017 154.209 24.9069 152.576 22.8178 150.844L21.541 152.383C23.6643 154.144 25.8102 155.805 27.9785 157.367L29.1479 155.745ZM16.8809 145.595C14.9778 143.805 13.0931 141.927 11.2272 139.958L9.77545 141.334C11.6671 143.33 13.579 145.235 15.5108 147.052L16.8809 145.595ZM5.90082 134.028C5.02182 132.997 4.14722 131.945 3.27708 130.871L1.72295 132.129C2.60352 133.217 3.48884 134.282 4.37889 135.326L5.90082 134.028Z" fill="#FA9B0D"/>
</svg>
