<svg width="239" height="39" viewBox="0 0 239 39" fill="none" xmlns="http://www.w3.org/2000/svg">
<path d="M218.52 26.3427C219.028 31.0168 222.228 32.2742 225.937 32.2742C228.376 32.2742 230.459 32.5537 232.224 30.0388C232.758 29.2767 234.511 28.3622 235.959 29.264C237.584 30.2801 237.457 32.1472 236.467 33.5063C234.066 36.7959 230.345 37.6342 225.937 37.6342C219.078 37.6342 212.779 32.8839 212.779 24.8947C212.779 16.8547 217.249 10.5422 226.14 10.5422C234.282 10.5422 238.639 15.9911 238.639 24.1835V24.4883C238.639 25.3266 238.067 26.3427 237.241 26.3427H218.52ZM233.317 21.5543C232.504 17.4263 229.964 15.9021 226.14 15.9021C222.228 15.9021 219.333 17.4771 218.52 21.5543H233.317ZM203.202 29.6832C203.202 31.4232 204.446 32.2234 206.377 32.2234C206.669 32.2234 206.987 32.2869 207.33 32.2234C208.549 32.0075 209.73 33.0363 209.997 34.2557C210.289 35.4877 209.565 36.6816 208.359 37.05C207.533 37.304 206.568 37.6469 205.336 37.6342C201.182 37.5961 197.461 34.5986 197.461 30.4452V2.88322C197.5 2.13555 197.813 1.42844 198.34 0.896694C198.867 0.364951 199.571 0.0457688 200.319 0C201.066 0.0424678 201.772 0.358529 202.301 0.887929C202.83 1.41733 203.147 2.12304 203.189 2.87051V29.6832H203.202ZM180.288 37.6342C178.641 37.7002 177.001 37.3863 175.494 36.7167C173.988 36.0472 172.656 35.0399 171.601 33.773V34.2303C171.601 35.6909 170.178 36.8721 168.717 36.8721C167.269 36.8721 165.847 35.6909 165.847 34.2303V2.88322C165.886 2.13349 166.201 1.42469 166.731 0.892652C167.26 0.360613 167.968 0.0427574 168.717 0C169.469 0.0397298 170.18 0.35625 170.712 0.888589C171.244 1.42093 171.561 2.13142 171.601 2.88322V14.7336C172.667 13.4833 174.002 12.4909 175.507 11.8309C177.012 11.1709 178.646 10.8606 180.288 10.9232C186.893 10.9232 192.66 16.3213 192.66 24.2597C192.66 32.2361 186.906 37.6342 180.288 37.6342ZM179.755 16.7658C175.894 16.7658 171.601 18.7219 171.601 24.4248C171.601 30.1277 175.894 32.0837 179.755 32.0837C184.048 32.0837 187.401 29.1624 187.401 24.4248C187.448 23.4076 187.283 22.3919 186.915 21.4423C186.548 20.4926 185.986 19.63 185.267 18.9094C184.547 18.1888 183.686 17.6261 182.737 17.257C181.788 16.8879 180.772 16.7206 179.755 16.7658ZM159.141 34.4716C159.096 35.2194 158.779 35.9251 158.251 36.4561C157.722 36.987 157.018 37.3066 156.27 37.3548C155.522 37.3066 154.818 36.987 154.29 36.4561C153.761 35.9251 153.444 35.2194 153.4 34.4716V22.3545C153.4 18.6329 150.91 16.5626 147.659 16.5626C143.531 16.5626 141.905 19.1918 141.905 24.8439V34.4716C141.86 35.2194 141.543 35.9251 141.015 36.4561C140.486 36.987 139.782 37.3066 139.034 37.3548C138.287 37.3066 137.582 36.987 137.054 36.4561C136.525 35.9251 136.209 35.2194 136.164 34.4716V22.3545C136.164 18.6329 134.157 16.2959 130.905 16.2959C126.841 16.2959 124.669 19.1918 124.669 24.8439V34.4716C124.624 35.2194 124.308 35.9251 123.779 36.4561C123.25 36.987 122.546 37.3066 121.798 37.3548C121.051 37.3066 120.347 36.987 119.818 36.4561C119.289 35.9251 118.973 35.2194 118.928 34.4716V14.3653C118.976 13.6197 119.294 12.917 119.822 12.3887C120.35 11.8604 121.053 11.5426 121.798 11.4948C122.544 11.5426 123.247 11.8604 123.775 12.3887C124.303 12.917 124.621 13.6197 124.669 14.3653C126.498 12.1298 128.67 10.974 132.29 10.974C135.884 10.974 138.348 12.4855 139.974 15.4195C142.006 12.5871 144.953 11.0502 149.119 11.0502C154.352 11.0502 159.153 15.3306 159.153 21.2748V34.4843L159.141 34.4716ZM106.468 34.7256C104.347 36.9357 102.988 37.6469 98.3898 37.6469C92.2931 37.6469 88.2795 33.6968 88.2795 27.3334V14.3653C88.322 13.6178 88.638 12.9121 89.1674 12.3827C89.6968 11.8533 90.4025 11.5372 91.15 11.4948C91.8975 11.5372 92.6032 11.8533 93.1326 12.3827C93.662 12.9121 93.9781 13.6178 94.0205 14.3653V26.2665C94.0205 30.3944 95.9511 32.5664 99.6091 32.5664C102.657 32.5664 105.147 32.0583 106.468 28.3495C106.442 28.3495 106.468 25.8727 106.468 23.777V14.3526C106.511 13.603 106.829 12.8956 107.361 12.3659C107.893 11.8362 108.601 11.5215 109.351 11.4821C110.099 11.5245 110.804 11.8406 111.334 12.37C111.863 12.8994 112.179 13.6051 112.222 14.3526V34.7002C112.222 36.1609 110.812 37.3421 109.351 37.3421C107.89 37.3421 106.468 36.1609 106.468 34.7002V34.7256ZM71.1199 37.6469C69.4695 37.7134 67.826 37.3984 66.3171 36.7265C64.8081 36.0547 63.4744 35.044 62.4195 33.773V34.2303C62.4195 35.6909 61.0096 36.8721 59.549 36.8721C58.0883 36.8721 56.6784 35.6909 56.6784 34.2303V2.88322C56.7179 2.13349 57.0326 1.42469 57.5623 0.892652C58.092 0.360613 58.7994 0.0427574 59.549 0C60.2985 0.0427574 61.0059 0.360613 61.5356 0.892652C62.0653 1.42469 62.38 2.13349 62.4195 2.88322V14.7336C63.4869 13.4816 64.8245 12.4881 66.3316 11.8281C67.8387 11.168 69.4759 10.8586 71.1199 10.9232C77.7246 10.9232 83.4911 16.3213 83.4911 24.2597C83.4911 32.2361 77.7246 37.6342 71.1199 37.6342V37.6469ZM70.5865 16.7658C66.7125 16.7658 62.4195 18.7219 62.4195 24.4248C62.4195 30.1277 66.7125 32.0837 70.5865 32.0837C74.8795 32.0837 78.22 29.1624 78.22 24.4248C78.2668 23.4087 78.1015 22.3941 77.7348 21.4454C77.368 20.4967 76.8078 19.6347 76.0898 18.9143C75.3718 18.1939 74.5117 17.6308 73.5642 17.261C72.6167 16.8911 71.6026 16.7225 70.5865 16.7658ZM43.5325 17.7565C44.0278 18.6202 44.0278 19.6872 43.5325 20.5509L34.07 36.9102C33.8253 37.3341 33.4736 37.6862 33.0501 37.9314C32.6265 38.1766 32.1461 38.3062 31.6567 38.3074H12.7316C12.2422 38.3062 11.7618 38.1766 11.3382 37.9314C10.9147 37.6862 10.563 37.3341 10.3183 36.9102L0.868507 20.5509C0.623255 20.1261 0.494141 19.6442 0.494141 19.1537C0.494141 18.6632 0.623255 18.1813 0.868507 17.7565L10.3183 1.39715C10.563 0.973344 10.9147 0.621225 11.3382 0.376032C11.7618 0.130839 12.2422 0.00116994 12.7316 0H31.6567C32.6474 0 33.5619 0.533458 34.07 1.39715L43.5325 17.7565ZM31.7456 21.5543C33.0538 21.5543 34.1208 20.4746 34.1208 19.1537C34.1208 17.8328 33.0538 16.7658 31.7456 16.7658H12.6554C12.0204 16.7658 11.4114 17.0181 10.9624 17.4671C10.5134 17.9161 10.2612 18.5251 10.2612 19.1601C10.2612 19.795 10.5134 20.404 10.9624 20.853C11.4114 21.302 12.0204 21.5543 12.6554 21.5543H31.7329H31.7456ZM25.0901 29.6832C26.3856 29.6832 27.4398 28.6162 27.4398 27.2953C27.4398 25.9743 26.3856 24.8947 25.0901 24.8947H19.2855C17.99 24.8947 16.9358 25.9743 16.9358 27.2953C16.9358 28.6162 17.99 29.6832 19.2855 29.6832H25.0774H25.0901ZM16.9358 8.63695C15.6275 8.63695 14.5606 9.70387 14.5606 11.0248C14.5606 12.3458 15.6275 13.4254 16.9358 13.4254H27.4525C28.7608 13.4254 29.8277 12.3458 29.8277 11.0248C29.8277 9.70387 28.7608 8.63695 27.4525 8.63695H16.9358Z" fill="#959595"/>
</svg>
