<svg width="16" height="17" viewBox="0 0 16 17" fill="none" xmlns="http://www.w3.org/2000/svg">
<g clip-path="url(#clip0_108_375)">
<path d="M4.134 14.3076H1.2315V4.96062H4.134V14.3076ZM2.681 3.68562C1.753 3.68562 1 2.91662 1 1.98862C1 1.54279 1.1771 1.11522 1.49235 0.799971C1.8076 0.484722 2.23517 0.307617 2.681 0.307617C3.12683 0.307617 3.5544 0.484722 3.86965 0.799971C4.1849 1.11522 4.362 1.54279 4.362 1.98862C4.362 2.91662 3.609 3.68562 2.681 3.68562ZM14.997 14.3076H12.101V9.75762C12.101 8.67312 12.079 7.28262 10.592 7.28262C9.083 7.28262 8.8515 8.46062 8.8515 9.67962V14.3076H5.952V4.96062H8.7355V6.23562H8.776C9.1635 5.50112 10.11 4.72612 11.522 4.72612C14.4595 4.72612 14.9995 6.66062 14.9995 9.17312V14.3076H14.997Z" fill="#FA9B0D"/>
</g>
<defs>
<clipPath id="clip0_108_375">
<rect width="16" height="16" fill="white" transform="translate(0 0.307617)"/>
</clipPath>
</defs>
</svg>
