<svg width="102" height="19" viewBox="0 0 102 19" fill="none" xmlns="http://www.w3.org/2000/svg">
<path d="M14.9577 9.95366C14.9577 11.5392 14.6146 12.9494 13.9286 14.1842C13.2578 15.4039 12.2821 16.3567 11.0015 17.0427C9.73615 17.7288 8.24211 18.0718 6.5194 18.0718H0.413661V1.90416H6.5194C8.25736 1.90416 9.75902 2.23955 11.0244 2.91034C12.2897 3.58114 13.2578 4.52634 13.9286 5.74597C14.6146 6.96559 14.9577 8.36816 14.9577 9.95366ZM6.17638 14.573C7.70091 14.573 8.88241 14.169 9.72091 13.361C10.5746 12.553 11.0015 11.4172 11.0015 9.95366C11.0015 8.49012 10.5746 7.35434 9.72091 6.54634C8.88241 5.73834 7.70091 5.33434 6.17638 5.33434H4.32408V14.573H6.17638ZM29.305 11.3486C29.305 11.6688 29.2668 12.0194 29.1906 12.4005H20.3407C20.3865 13.361 20.6304 14.0546 21.0725 14.4815C21.5146 14.8931 22.0787 15.0989 22.7647 15.0989C23.3441 15.0989 23.8243 14.9541 24.2054 14.6645C24.5865 14.3748 24.8381 14.0013 24.9601 13.5439H29.0991C28.9314 14.4434 28.5656 15.2514 28.0015 15.9679C27.4374 16.6692 26.7209 17.2257 25.8519 17.6373C24.9829 18.0337 24.0148 18.2319 22.9477 18.2319C21.6976 18.2319 20.5847 17.9727 19.609 17.4543C18.6485 16.9208 17.8939 16.1585 17.345 15.1676C16.7962 14.1766 16.5218 13.018 16.5218 11.6916C16.5218 10.35 16.7886 9.1914 17.3222 8.2157C17.871 7.22476 18.6333 6.47012 19.609 5.95178C20.5847 5.41819 21.6976 5.1514 22.9477 5.1514C24.213 5.1514 25.3259 5.41057 26.2864 5.92891C27.2468 6.44725 27.9862 7.17902 28.5046 8.12423C29.0382 9.05419 29.305 10.129 29.305 11.3486ZM25.3488 10.754C25.3641 9.91555 25.1354 9.29049 24.6628 8.87887C24.2054 8.452 23.6337 8.23857 22.9477 8.23857C22.2311 8.23857 21.6366 8.452 21.164 8.87887C20.6914 9.30574 20.4246 9.9308 20.3636 10.754H25.3488ZM35.2538 1.14951V18.0718H31.3434V1.14951H35.2538ZM44.2195 3.57351C43.5792 3.57351 43.1142 3.71072 42.8245 3.98514C42.5349 4.25955 42.3748 4.70166 42.3443 5.31148H44.654V8.60446H42.3443V18.0718H38.4339V8.60446H36.9018V5.31148H38.4339V5.17427C38.4339 3.58876 38.8913 2.36914 39.806 1.5154C40.7359 0.64642 42.0775 0.21193 43.8307 0.21193C44.1966 0.21193 44.471 0.219553 44.654 0.234798V3.59638L44.2195 3.57351ZM52.3414 5.1514C53.6067 5.1514 54.7349 5.41819 55.7258 5.95178C56.732 6.47012 57.5171 7.22476 58.0812 8.2157C58.6605 9.20665 58.9502 10.3653 58.9502 11.6916C58.9502 13.018 58.6605 14.1766 58.0812 15.1676C57.5171 16.1585 56.732 16.9208 55.7258 17.4543C54.7349 17.9727 53.6067 18.2319 52.3414 18.2319C51.076 18.2319 49.9402 17.9727 48.934 17.4543C47.9278 16.9208 47.1351 16.1585 46.5558 15.1676C45.9917 14.1766 45.7097 13.018 45.7097 11.6916C45.7097 10.3653 45.9917 9.20665 46.5558 8.2157C47.1351 7.22476 47.9278 6.47012 48.934 5.95178C49.9402 5.41819 51.076 5.1514 52.3414 5.1514ZM52.3414 8.53585C51.5943 8.53585 50.9617 8.81027 50.4433 9.3591C49.9402 9.89268 49.6887 10.6702 49.6887 11.6916C49.6887 12.7131 49.9402 13.4906 50.4433 14.0242C50.9617 14.5577 51.5943 14.8245 52.3414 14.8245C53.0884 14.8245 53.7134 14.5577 54.2165 14.0242C54.7196 13.4906 54.9712 12.7131 54.9712 11.6916C54.9712 10.6702 54.7196 9.89268 54.2165 9.3591C53.7134 8.81027 53.0884 8.53585 52.3414 8.53585ZM66.9465 5.1514C68.2118 5.1514 69.34 5.41819 70.3309 5.95178C71.3371 6.47012 72.1222 7.22476 72.6863 8.2157C73.2656 9.20665 73.5553 10.3653 73.5553 11.6916C73.5553 13.018 73.2656 14.1766 72.6863 15.1676C72.1222 16.1585 71.3371 16.9208 70.3309 17.4543C69.34 17.9727 68.2118 18.2319 66.9465 18.2319C65.6811 18.2319 64.5453 17.9727 63.5391 17.4543C62.5329 16.9208 61.7402 16.1585 61.1609 15.1676C60.5968 14.1766 60.3148 13.018 60.3148 11.6916C60.3148 10.3653 60.5968 9.20665 61.1609 8.2157C61.7402 7.22476 62.5329 6.47012 63.5391 5.95178C64.5453 5.41819 65.6811 5.1514 66.9465 5.1514ZM66.9465 8.53585C66.1994 8.53585 65.5668 8.81027 65.0484 9.3591C64.5453 9.89268 64.2938 10.6702 64.2938 11.6916C64.2938 12.7131 64.5453 13.4906 65.0484 14.0242C65.5668 14.5577 66.1994 14.8245 66.9465 14.8245C67.6935 14.8245 68.3185 14.5577 68.8216 14.0242C69.3247 13.4906 69.5763 12.7131 69.5763 11.6916C69.5763 10.6702 69.3247 9.89268 68.8216 9.3591C68.3185 8.81027 67.6935 8.53585 66.9465 8.53585ZM80.431 5.1514C81.4067 5.1514 82.2452 5.37246 82.9465 5.81457C83.6478 6.25668 84.1585 6.85887 84.4786 7.62114V1.14951H88.3891V18.0718H84.4786V15.7621C84.1585 16.5244 83.6478 17.1266 82.9465 17.5687C82.2452 18.0108 81.4067 18.2319 80.431 18.2319C79.3791 18.2319 78.4339 17.9727 77.5954 17.4543C76.7721 16.9208 76.1166 16.1585 75.6288 15.1676C75.1561 14.1766 74.9198 13.018 74.9198 11.6916C74.9198 10.35 75.1561 9.1914 75.6288 8.2157C76.1166 7.22476 76.7721 6.47012 77.5954 5.95178C78.4339 5.41819 79.3791 5.1514 80.431 5.1514ZM81.6888 8.58159C80.8503 8.58159 80.1718 8.856 79.6535 9.40483C79.1504 9.95366 78.8989 10.7159 78.8989 11.6916C78.8989 12.6673 79.1504 13.4296 79.6535 13.9784C80.1718 14.5272 80.8503 14.8017 81.6888 14.8017C82.512 14.8017 83.1828 14.5196 83.7011 13.9556C84.2347 13.3915 84.5015 12.6368 84.5015 11.6916C84.5015 10.7312 84.2347 9.97653 83.7011 9.4277C83.1828 8.86363 82.512 8.58159 81.6888 8.58159ZM95.7236 5.1514C97.3396 5.1514 98.6278 5.5554 99.5883 6.3634C100.564 7.1714 101.174 8.23857 101.418 9.56491H97.7588C97.6521 9.04657 97.4082 8.64257 97.0271 8.35291C96.6612 8.048 96.1962 7.89555 95.6321 7.89555C95.19 7.89555 94.8546 7.99465 94.6259 8.19283C94.3972 8.37578 94.2829 8.64257 94.2829 8.99321C94.2829 9.38959 94.4887 9.68687 94.9003 9.88506C95.3272 10.0832 95.9904 10.2814 96.8899 10.4796C97.8656 10.7083 98.6659 10.9446 99.291 11.1885C99.916 11.4172 100.457 11.7983 100.915 12.3319C101.372 12.8655 101.601 13.582 101.601 14.4815C101.601 15.2133 101.402 15.8612 101.006 16.4253C100.61 16.9894 100.038 17.4315 99.291 17.7516C98.544 18.0718 97.6597 18.2319 96.6383 18.2319C94.9156 18.2319 93.5359 17.8507 92.4992 17.0885C91.4625 16.3262 90.8299 15.2362 90.6012 13.8183H94.3744C94.4354 14.3672 94.664 14.7864 95.0604 15.0761C95.472 15.3657 95.998 15.5106 96.6383 15.5106C97.0804 15.5106 97.4158 15.4115 97.6445 15.2133C97.8732 14.9999 97.9875 14.7254 97.9875 14.39C97.9875 13.9479 97.7741 13.6354 97.3472 13.4525C96.9356 13.2543 96.2572 13.0485 95.312 12.835C94.3668 12.6368 93.5892 12.4234 92.9794 12.1947C92.3696 11.966 91.8437 11.6002 91.4016 11.0971C90.9594 10.5787 90.7384 9.87744 90.7384 8.99321C90.7384 7.84982 91.1729 6.92748 92.0419 6.22619C92.9108 5.50967 94.1381 5.1514 95.7236 5.1514Z" fill="#FA9B0D"/>
</svg>
