<svg width="197" height="51" viewBox="0 0 197 51" fill="none" xmlns="http://www.w3.org/2000/svg">
<path fill-rule="evenodd" clip-rule="evenodd" d="M13.9238 20.3308L2.7041 13.183L14.003 5.98486L25.293 13.1775L36.5835 5.98486L47.882 13.183L36.6623 20.3307L47.8821 27.4786L36.5834 34.6769L25.293 27.4841L14.0029 34.6769L2.7041 27.4786L13.9238 20.3308ZM25.293 13.1884L36.5042 20.3308L25.293 27.4731L14.0818 20.3307L25.293 13.1884ZM25.3742 44.2605L14.0754 37.0622L25.3742 29.8648L36.6732 37.0622L25.3742 44.2605Z" fill="#959595"/>
<path fill-rule="evenodd" clip-rule="evenodd" d="M175.932 37.2714L183.379 27.2221L176.51 17.7268H182.393L186.372 23.6513L190.385 17.7268H196.234L189.263 27.1881L196.608 37.2714H190.827L186.304 30.8949L181.917 37.2714H175.932Z" fill="#959595"/>
<path fill-rule="evenodd" clip-rule="evenodd" d="M156.888 27.8853C156.888 34.3467 160.458 37.7815 166.784 37.7815C172.701 37.7815 176.714 34.3467 176.714 27.8853V27.3412C176.714 20.8117 172.633 17.2069 166.784 17.2069C161.071 17.2069 156.888 20.7437 156.888 27.3412V27.8853ZM171.545 27.8173C171.545 31.3881 169.743 33.3265 166.784 33.3265C163.859 33.3265 162.057 31.354 162.057 27.8173V27.3411C162.057 23.5323 163.961 21.5258 166.818 21.5258C169.709 21.5258 171.545 23.6683 171.545 27.3411V27.8173Z" fill="#959595"/>
<path fill-rule="evenodd" clip-rule="evenodd" d="M139.99 33.7006C141.044 36.2172 143.153 37.7815 146.384 37.7815C151.383 37.7815 154.647 34.1087 154.647 27.5793V27.0011C154.647 20.4717 151.179 17.2409 146.52 17.2069C143.425 17.2069 141.248 18.6012 140.16 21.1518V11.0856H135.161V37.2714H139.582L139.99 33.7006ZM149.512 27.5793C149.512 31.4562 147.71 33.3606 144.751 33.3606C141.929 33.3606 140.058 31.2521 140.058 27.5793V27.1712C140.058 23.8044 141.997 21.5259 144.819 21.5259C147.54 21.5259 149.512 23.4984 149.512 27.1032V27.5793Z" fill="#959595"/>
<path fill-rule="evenodd" clip-rule="evenodd" d="M112.891 17.7268V43.9166H117.89V34.1087C118.944 36.3872 121.018 37.7815 124.147 37.7815C128.772 37.7815 132.411 34.4148 132.411 27.9533V27.4092C132.411 20.8117 129.146 17.2069 124.147 17.2069C120.916 17.2069 118.74 18.8733 117.686 21.3898L117.176 17.7268H112.891ZM127.242 27.8513C127.242 31.4561 125.371 33.3945 122.447 33.3945C119.624 33.3945 117.788 31.2181 117.788 27.7493V27.3752C117.788 23.7364 119.692 21.5599 122.549 21.5599C125.235 21.5599 127.242 23.4983 127.242 27.4092V27.8513Z" fill="#959595"/>
<path fill-rule="evenodd" clip-rule="evenodd" d="M90.4023 27.8853C90.4023 34.3467 94.0071 37.7815 100.333 37.7815C106.25 37.7815 110.229 34.3467 110.229 27.8853V27.3412C110.229 20.8117 106.182 17.2069 100.333 17.2069C94.6193 17.2069 90.4023 20.7437 90.4023 27.3412V27.8853ZM105.06 27.8173C105.06 31.3881 103.223 33.3265 100.299 33.3265C97.3739 33.3265 95.5715 31.3541 95.5715 27.8173V27.3412C95.5715 23.5323 97.4759 21.5259 100.333 21.5259C103.223 21.5259 105.06 23.6684 105.06 27.3412V27.8173Z" fill="#959595"/>
<path fill-rule="evenodd" clip-rule="evenodd" d="M76.8672 37.2714H81.9683V28.2934C81.9683 24.1445 82.9886 22.6822 87.2055 22.6822H89.314V17.479H88.0557C84.4169 17.479 82.4104 19.0774 81.6283 22.2061L80.9821 17.7268H76.8672V37.2714Z" fill="#959595"/>
<path fill-rule="evenodd" clip-rule="evenodd" d="M54.21 13.0428V37.2714H63.5028C69.5561 37.2714 74.1131 33.7346 74.1131 25.9128V24.2465C74.1131 16.4587 69.2841 13.0428 63.3667 13.0428H54.21ZM59.2916 17.4109H63.0947C66.5295 17.4109 68.876 19.6214 68.876 24.4845V25.7428C68.876 30.6059 66.5975 32.8164 63.2647 32.8164H59.2916V17.4109Z" fill="#959595"/>
</svg>
