<svg width="148" height="39" viewBox="0 0 148 39" fill="none" xmlns="http://www.w3.org/2000/svg">
<path d="M37.1257 38.2024C34.5732 37.8307 32.3407 36.7503 30.6358 35.0616C29.2137 33.653 28.2917 32.104 27.6121 29.9814C26.5509 26.6677 26.5506 22.4072 27.6111 19.1609C28.6389 16.015 30.9531 13.2766 33.7854 11.8548C37.7077 9.88585 43.2282 10.0095 46.8609 12.1477C50.1302 14.0721 52.1106 17.4913 52.6615 22.1628C52.8298 23.5892 52.7206 26.6019 52.4557 27.8456C51.3712 32.9356 48.2129 36.4912 43.5858 37.8314C43.0872 37.9758 42.314 38.1448 41.8676 38.2068C40.9229 38.3382 38.0399 38.3355 37.1257 38.2024ZM42.6502 37.8094C44.518 37.3734 46.007 36.7077 47.3381 35.7136C50.5755 33.2958 52.3494 29.5884 52.5133 24.8981C52.6747 20.2742 51.2802 16.3327 48.5838 13.7913C46.3949 11.7283 43.6366 10.7395 40.0711 10.7395C36.2915 10.7395 33.2476 11.9114 30.9058 14.2681C28.3973 16.7926 27.0705 20.3143 27.0705 24.4476C27.0705 28.7355 28.2692 32.1969 30.5941 34.622C31.8759 35.9591 33.1237 36.7609 34.913 37.3975C35.5456 37.6225 36.0111 37.7306 37.7026 38.045C37.8473 38.0719 38.8184 38.0769 39.8606 38.0561C41.2714 38.028 41.9839 37.9649 42.6502 37.8094ZM38.656 36.3134C36.9269 35.529 35.7007 33.1447 35.0862 29.3719C34.6966 26.9803 34.6598 21.6617 35.0148 19.0557C35.5133 15.396 36.5664 13.2339 38.206 12.5035C39.3299 12.0029 40.8875 12.299 41.8889 13.2038C44.1131 15.2133 45.2358 20.9272 44.7514 27.7732C44.4038 32.6858 43.3377 35.3502 41.349 36.2762C40.6281 36.6119 39.3528 36.6295 38.656 36.3134ZM40.9444 36.1584C41.6901 35.9369 42.6098 35.0745 43.1002 34.1368C44.1126 32.2009 44.5647 29.3383 44.5759 24.7928C44.5899 19.0961 43.6969 15.4711 41.8119 13.573C41.0204 12.776 40.4591 12.5285 39.447 12.5301C37.201 12.5337 35.7754 14.8785 35.2122 19.4957C34.9533 21.618 34.9519 26.6741 35.2097 28.5298C36.0076 34.2724 38.0676 37.0127 40.9444 36.1584ZM82.3362 38.201C81.2919 38.0952 78.1006 37.5641 76.9858 37.3106L76.2146 37.1353L76.2747 33.0168C76.4195 23.101 76.4377 17.688 76.344 12.4238C76.2522 7.26693 76.2254 6.72168 76.0266 5.95887C75.7746 4.99232 75.4109 4.3181 74.9735 4.00663C74.8036 3.88563 74.3419 3.71415 73.9475 3.62556C72.6368 3.33112 72.708 3.37833 72.673 2.78036C72.6528 2.43591 72.6901 2.20836 72.7782 2.13854C72.8964 2.04493 83.6472 -0.00574743 83.9896 1.21092e-05C84.088 0.00166692 84.1019 1.37631 84.0515 6.1077C84.0157 9.46575 84.0111 12.2132 84.0413 12.2132C84.0715 12.2132 84.4643 12.0431 84.9143 11.8352C86.2706 11.2086 87.5208 10.9366 89.3366 10.8734C90.5455 10.8312 91.1055 10.8576 91.7257 10.9859C95.7809 11.825 98.7819 15.1442 99.8306 19.9505C100.104 21.2042 100.206 24.3202 100.024 25.881C99.8695 27.2113 99.4278 29.0037 98.9682 30.1668C97.2338 34.5559 93.5125 37.4193 88.576 38.1634C87.4389 38.3348 83.868 38.3563 82.3362 38.201ZM88.2839 37.9501C91.4817 37.4705 93.8273 36.3723 95.8137 34.4248C98.685 31.6097 100.068 27.6367 99.8811 22.7401C99.7848 20.219 99.3731 18.5722 98.3283 16.5292C96.9127 13.7615 94.4918 11.8201 91.7429 11.2484C89.6809 10.8196 87.0278 11.1555 85.0106 12.1007C84.5079 12.3363 84.0267 12.5291 83.9413 12.5291C83.8057 12.5291 83.791 11.7495 83.8255 6.38897L83.8651 0.248894L83.4428 0.333552C83.2105 0.380114 80.8414 0.821539 78.1781 1.3145C75.5149 1.80745 73.2319 2.23514 73.105 2.26491C72.912 2.31016 72.8782 2.38372 72.8988 2.7133C72.9219 3.0806 72.952 3.11383 73.3402 3.19924C74.6747 3.49288 74.9123 3.59752 75.4085 4.11007C76.0163 4.73796 76.2909 5.53976 76.471 7.21301C76.6145 8.54636 76.6464 31.5182 76.5094 34.909L76.4281 36.9195L77.5137 37.1517C81.6241 38.0307 85.7214 38.3344 88.2839 37.9501ZM84.5286 36.3487C84.3158 36.3263 84.0883 36.2434 84.0228 36.1645C83.8424 35.9471 83.6469 21.6572 83.7672 17.4767L83.8626 14.1607L84.7048 13.9179C85.9472 13.5597 87.2848 13.6154 88.2331 14.0648C90.1375 14.9673 91.3885 17.1965 92.0382 20.8452C92.2498 22.0337 92.2186 26.1617 91.9868 27.6306C91.5029 30.6978 90.6223 33.065 89.3964 34.5943C88.8021 35.3357 87.8152 36.0369 87.0436 36.2661C86.5457 36.4139 85.4787 36.449 84.5286 36.3487ZM86.5552 36.1075C87.32 35.9625 87.9141 35.6582 88.5519 35.0847C90.1506 33.6473 91.3526 30.6799 91.8253 27.0034C92.0179 25.506 91.9919 22.0939 91.7785 20.844C91.2013 17.4637 89.9609 15.242 88.1514 14.3474C87.4008 13.9763 87.2851 13.9502 86.3947 13.9502C85.758 13.9502 85.2102 14.0183 84.7445 14.1556L84.0473 14.3609L83.9958 18.2084C83.9299 23.1369 84.0902 35.4755 84.2248 35.8295C84.3107 36.0555 84.4053 36.1034 84.8315 36.1368C85.8347 36.2155 86.0006 36.2127 86.5552 36.1075ZM112.601 38.1489C107.378 37.207 103.644 33.5035 102.423 28.0569C102.266 27.3564 102.197 26.5725 102.157 25.056C102.095 22.6567 102.29 21.1675 102.909 19.3172C104.098 15.7644 106.229 13.2468 109.324 11.7379C112.591 10.1452 117.057 10.0409 119.948 11.4897C123.203 13.121 125.119 16.3781 125.604 21.1084C125.67 21.7453 125.708 22.5032 125.689 22.7927L125.654 23.319L117.864 23.346L110.074 23.373L110.104 24.2934C110.173 26.4255 110.631 28.3113 111.479 29.9509C111.865 30.6962 112.171 31.1025 112.917 31.8549C114.6 33.5546 116.275 34.2127 118.917 34.2127C120.833 34.2127 122.21 33.8304 123.651 32.899C124.054 32.6382 124.463 32.4247 124.559 32.4247C124.779 32.4247 125.286 33.0765 125.286 33.3596C125.286 33.8235 123.775 35.3194 122.302 36.3145C121.096 37.1296 119.182 37.8675 117.523 38.1578C116.361 38.361 113.751 38.3564 112.601 38.1489ZM117.282 37.9466C119.721 37.5511 122.123 36.3804 123.85 34.7457C124.795 33.8502 125.109 33.4181 124.977 33.1918C124.626 32.5877 124.642 32.5884 123.746 33.1388C122.319 34.0151 121.604 34.2567 119.928 34.4287C117.97 34.6296 116.164 34.3024 114.496 33.4444C113.389 32.8753 112.062 31.5661 111.399 30.3886C110.494 28.7817 110.003 26.9047 109.857 24.4925C109.796 23.4796 109.809 23.2272 109.928 23.1519C110.009 23.1005 113.519 23.0584 117.785 23.0575L125.496 23.0559V22.7512C125.496 22.0589 125.269 20.1978 125.065 19.2221C124.246 15.2989 122.084 12.5014 119 11.376C117.773 10.9281 116.612 10.7395 115.082 10.7395C111.456 10.7395 108.495 11.9288 106.204 14.3049C104.378 16.1994 103.294 18.3276 102.633 21.3189C102.434 22.2205 102.4 22.689 102.4 24.5823C102.4 26.4615 102.434 26.9462 102.628 27.8154C103.855 33.3367 107.487 36.9727 112.706 37.9041C114.029 38.1401 115.978 38.1583 117.282 37.9466ZM109.879 21.2912C109.8 21.1631 109.997 19.2893 110.191 18.3188C110.66 15.9795 111.41 14.2902 112.442 13.25C112.998 12.6905 113.251 12.5161 113.704 12.3816C114.016 12.289 114.369 12.2135 114.488 12.2138C114.971 12.2151 115.541 12.4616 115.966 12.8526C117.104 13.9021 117.756 16.1559 117.885 19.4919L117.949 21.1386L116.854 21.1996C114.656 21.3221 109.937 21.3841 109.879 21.2912ZM115.906 20.9903L117.738 20.9266L117.672 19.6256C117.439 15.0381 116.317 12.5311 114.496 12.5331C112.517 12.5353 110.935 15.0795 110.278 19.3188C110.197 19.8399 110.13 20.4578 110.129 20.692L110.127 21.1178L112.101 21.0859C113.186 21.0683 114.899 21.0253 115.906 20.9903ZM133.654 38.251C131.779 38.05 128.794 37.3965 127.8 36.9694L127.315 36.7607L127.249 34.3559C127.212 33.0332 127.17 31.2647 127.155 30.4259L127.128 28.9008L127.419 28.7614C127.579 28.6847 127.902 28.6131 128.137 28.6022L128.564 28.5824L128.927 29.4772C130.345 32.9679 132.009 34.85 134.181 35.4225C135.01 35.6408 136.564 35.6428 137.177 35.4262C138.896 34.8195 139.839 33.5182 139.847 31.7405C139.856 29.6352 138.699 28.6236 134.327 26.9158C131.619 25.8578 130.674 25.3133 129.549 24.1617C128.335 22.9195 127.753 21.5055 127.644 19.5362C127.511 17.1565 128.256 15.1503 129.907 13.4408C131.567 11.7203 133.724 10.7879 136.661 10.5199C139.247 10.2839 143.217 10.8324 145.298 11.7133L145.677 11.874L145.745 14.0174C145.782 15.1963 145.821 16.7766 145.83 17.5292L145.848 18.8976L145.339 19.0868C144.533 19.386 144.48 19.3485 144.032 18.1609C142.775 14.8319 141.315 13.2568 139.041 12.7756C137.655 12.4824 136.497 12.7976 135.655 13.6974C134.998 14.3994 134.742 15.0227 134.68 16.0695C134.613 17.2037 134.816 17.8168 135.509 18.575C136.363 19.5095 137.762 20.3162 140.549 21.4811C143.964 22.9078 145.593 24.119 146.478 25.8893C147.054 27.039 147.216 27.9572 147.159 29.7247C147.115 31.051 147.073 31.3237 146.771 32.2142C145.787 35.1176 143.566 37.029 140.135 37.9251C138.973 38.2286 138.807 38.2444 136.497 38.2697C135.165 38.2842 133.886 38.2759 133.654 38.251ZM138.655 37.9561C143.127 37.2768 146.015 34.8786 146.772 31.2141C147.138 29.4447 146.967 27.477 146.334 26.1613C145.447 24.3191 143.948 23.207 140.234 21.6368C137.475 20.4706 135.822 19.482 135.145 18.5942C134.585 17.8608 134.403 17.2969 134.411 16.3187C134.422 14.8433 134.981 13.7134 136.049 13.0088C136.943 12.4189 138.063 12.275 139.367 12.5825C140.943 12.9541 142.128 13.9214 143.199 15.7098C143.539 16.2789 144.24 17.8765 144.581 18.8624C144.634 19.0153 144.695 19.0218 145.062 18.9132C145.294 18.8449 145.516 18.7564 145.555 18.7167C145.595 18.6769 145.593 17.1689 145.55 15.3655L145.472 12.0865L145.09 11.9248C144.445 11.6519 142.763 11.1943 141.655 10.9905C140.821 10.8371 140.088 10.7974 138.128 10.7995C135.79 10.8021 135.599 10.8174 134.633 11.0794C131.827 11.8406 129.747 13.424 128.66 15.6258C128.082 16.7959 127.883 17.6979 127.889 19.1083C127.898 21.1108 128.444 22.5891 129.651 23.8806C130.689 24.9919 132.039 25.7847 134.339 26.6338C136.148 27.302 138.016 28.2349 138.724 28.8241C139.14 29.1703 139.467 29.5648 139.711 30.0148C140.058 30.6548 140.075 30.7394 140.076 31.7405C140.076 32.7049 140.048 32.8523 139.742 33.4985C138.942 35.187 137.342 36.0253 135.246 35.8539C132.398 35.621 130.393 33.7377 128.76 29.7618C128.335 28.7248 128.305 28.7033 127.658 28.9494L127.361 29.0624L127.435 32.77C127.501 36.0605 127.529 36.4928 127.686 36.6129C128.154 36.9719 131.184 37.691 133.286 37.942C134.918 38.1369 137.421 38.1435 138.655 37.9561ZM0.885037 37.6184C0.797515 37.5831 0.753452 37.3207 0.753452 36.835C0.753452 35.9627 0.69786 36.0018 2.38511 35.6887C3.67918 35.4487 4.14216 35.2031 4.71361 34.4539C5.82159 33.0012 6.06107 30.2042 6.06355 18.6872C6.06589 7.87142 5.85752 5.59615 4.71162 3.92452C4.20322 3.18287 3.34645 2.78015 1.9114 2.60831L0.806086 2.47595L0.775602 1.61304L0.745117 0.750128L1.09141 0.688421C1.28186 0.654483 7.97353 0.640142 15.9618 0.656552L30.4859 0.68639L30.554 1.10746C30.5914 1.33905 30.6529 3.71453 30.6906 6.38629L30.7591 11.244L30.0102 11.4715C28.883 11.8139 28.8898 11.8181 28.3827 10.4763C27.1372 7.18061 25.7089 5.28156 23.7545 4.32261C22.4066 3.66123 21.7834 3.58126 17.9768 3.58126H14.664L14.6069 4.13392C14.4998 5.17029 14.3307 11.837 14.3319 14.9765L14.333 18.1083L15.3068 18.1027C15.8423 18.0996 16.8984 18.0602 17.6535 18.0151C18.7887 17.9473 19.126 17.887 19.601 17.6672C20.7679 17.127 21.5618 15.938 22.0482 14.0022L22.2993 13.0028L23.1585 12.9722L24.0177 12.9416V19.2662V25.5908L23.1581 25.5602L22.2986 25.5297L22.0546 24.5296C21.5962 22.6506 20.714 21.3054 19.6238 20.8232C19.1204 20.6005 17.8746 20.4739 15.4647 20.4006L14.333 20.3662V22.7422C14.333 25.3315 14.4754 28.8343 14.6578 30.7353C14.9122 33.3854 15.5894 34.8498 16.8057 35.3797C17.0379 35.4809 17.7727 35.6453 18.4385 35.745C19.1043 35.8447 19.732 35.9691 19.8333 36.0214C20.0902 36.1541 20.1054 37.5266 19.851 37.6242C19.6519 37.7006 1.07468 37.6949 0.885037 37.6184ZM19.807 36.7933C19.807 36.4749 19.7785 36.2144 19.7438 36.2144C19.2422 36.2144 16.9049 35.7104 16.5292 35.5212C15.1924 34.8482 14.5745 33.2484 14.3348 29.8401C14.1643 27.4172 13.9947 20.2993 14.1048 20.1892C14.2046 20.0894 18.6552 20.2667 19.1754 20.3913C20.6135 20.7356 21.7221 22.1503 22.2771 24.3497L22.5218 25.3191L23.1645 25.3505L23.8072 25.3818V19.2712V13.1607H23.1229C22.4832 13.1607 22.4387 13.1761 22.4387 13.3978C22.4387 13.7967 22.0394 15.0588 21.6614 15.8548C21.0694 17.1014 20.2356 17.8539 19.1754 18.0984C18.9148 18.1584 17.685 18.2547 16.4424 18.3122C14.6898 18.3933 14.164 18.3881 14.0979 18.2889C13.9757 18.1054 14.2542 4.24566 14.393 3.60166L14.4453 3.35888L18.3104 3.39112L22.1755 3.42336L23.0749 3.74547C25.1582 4.49157 26.6573 6.01514 27.9097 8.65934C28.1911 9.2534 28.5518 10.1184 28.7112 10.5816C28.8706 11.0448 29.0117 11.4385 29.0247 11.4565C29.0377 11.4745 29.3834 11.3874 29.7931 11.263L30.5378 11.0368L30.4855 7.5985C30.4567 5.70746 30.4058 3.43784 30.3724 2.5549L30.3116 0.949561H15.6328H0.953942L0.985282 1.60702L1.01662 2.26448L1.96404 2.38298C3.22789 2.54106 3.6913 2.67875 4.20023 3.04742C4.9717 3.60626 5.44615 4.42723 5.74491 5.72027C6.20907 7.72914 6.37613 12.2595 6.29876 20.74C6.217 29.7006 6.10399 31.5643 5.53273 33.3721C5.0629 34.859 4.18845 35.6472 2.74406 35.8857C2.34654 35.9514 1.78339 36.0561 1.49264 36.1184L0.963989 36.2318V36.8021V37.3723H10.3855H19.807V36.7933ZM52.777 37.5985C52.681 37.5374 52.6496 37.2946 52.6717 36.7839L52.7033 36.0565L53.0717 35.978C53.2743 35.9349 53.7096 35.8492 54.0389 35.7877C55.0582 35.5972 55.6439 35.044 55.9735 33.9604C56.2421 33.0776 56.3604 30.2535 56.3666 24.5823C56.3742 17.6461 56.2297 16.0082 55.5284 15.0796C55.1483 14.5764 54.8743 14.4333 53.9519 14.2563C53.4968 14.1689 53.0177 14.0752 52.8875 14.0481C52.6765 14.0042 52.6506 13.9355 52.6506 13.4196C52.6506 12.9179 52.6824 12.8273 52.8875 12.7429C53.2025 12.6134 63.6309 10.529 63.964 10.529H64.2239L64.173 12.0817C64.1449 12.9357 64.1001 14.1791 64.0734 14.845L64.0248 16.0555L64.4026 15.3742C65.612 13.1932 66.9683 11.8394 68.7718 11.0128C69.7619 10.5591 70.4224 10.4237 71.6456 10.4237C73.0962 10.4237 74.5464 10.897 74.5464 11.3705C74.5464 11.6888 71.9906 18.4419 71.8497 18.496C71.7809 18.5224 71.2819 18.3315 70.7407 18.0718C69.612 17.5303 68.5532 17.2654 67.5253 17.2677C66.2453 17.2705 64.8154 17.7419 64.2509 18.3474C64.0094 18.6063 64.0083 18.6219 63.9483 22.4896C63.8889 26.3197 64.0165 30.9917 64.2319 32.8708C64.4154 34.4716 64.8407 35.2597 65.7192 35.6266C66.0123 35.7491 67.8665 36.0031 68.4716 36.0038C68.5174 36.0038 68.5411 36.371 68.5242 36.8197L68.4935 37.6355L60.7036 37.6606C56.4192 37.6744 52.8522 37.6465 52.777 37.5985ZM68.3356 36.8023V36.2323L67.5197 36.1634C65.6381 36.0045 65.1226 35.8157 64.6284 35.104C63.9123 34.0728 63.7564 32.1698 63.7564 24.4591V18.441L64.0174 18.1632C64.3466 17.8128 65.376 17.3237 66.1038 17.1719C67.5817 16.8637 69.4712 17.13 70.9489 17.8547C71.3729 18.0627 71.7377 18.2151 71.7594 18.1933C71.8029 18.1498 74.23 11.7361 74.3053 11.4656C74.3395 11.3428 74.1997 11.2359 73.7914 11.0725C72.9176 10.7229 72.1599 10.603 71.1825 10.6597C68.5681 10.8114 66.2479 12.5483 64.5766 15.6048C64.2992 16.1121 64.0119 16.5277 63.9381 16.5283C63.8309 16.529 63.8184 15.9461 63.876 13.6281L63.9481 10.727L63.6944 10.7868C63.5548 10.8197 61.451 11.2459 59.0193 11.7339C53.804 12.7806 53.0791 12.9331 52.9547 13.01C52.9033 13.0418 52.8612 13.2299 52.8612 13.428C52.8612 13.8255 52.8147 13.8025 53.9998 13.9931C55.6288 14.2551 56.2042 15.0494 56.4471 17.3714C56.7638 20.399 56.6373 32.2013 56.2708 33.8127C56.0834 34.6365 55.5992 35.43 55.1118 35.7119C54.9312 35.8164 54.3628 35.9841 53.8486 36.0845L52.9138 36.267L52.882 36.8197L52.8502 37.3723H60.5929H68.3356V36.8023Z" fill="#959595"/>
<path d="M19.807 36.7933C19.807 36.4749 19.7785 36.2144 19.7438 36.2144C19.2422 36.2144 16.9049 35.7104 16.5292 35.5212C15.1924 34.8482 14.5745 33.2484 14.3348 29.8401C14.1643 27.4172 13.9947 20.2993 14.1048 20.1892C14.2046 20.0894 18.6552 20.2667 19.1754 20.3913C20.6135 20.7356 21.7221 22.1503 22.2771 24.3497L22.5218 25.3191L23.1645 25.3505L23.8072 25.3818V19.2712V13.1607H23.1229C22.4832 13.1607 22.4387 13.1761 22.4387 13.3978C22.4387 13.7967 22.0394 15.0588 21.6614 15.8548C21.0694 17.1014 20.2356 17.8539 19.1754 18.0984C18.9148 18.1584 17.685 18.2547 16.4424 18.3122C14.6898 18.3933 14.164 18.3881 14.0979 18.2889C13.9757 18.1054 14.2542 4.24566 14.393 3.60166L14.4453 3.35888L18.3104 3.39112L22.1755 3.42336L23.0749 3.74547C25.1582 4.49157 26.6573 6.01514 27.9097 8.65934C28.1911 9.2534 28.5518 10.1184 28.7112 10.5816C28.8706 11.0448 29.0117 11.4385 29.0247 11.4565C29.0377 11.4745 29.3834 11.3874 29.7931 11.263L30.5378 11.0368L30.4855 7.5985C30.4567 5.70746 30.4058 3.43784 30.3724 2.5549L30.3116 0.949561H15.6328H0.953942L0.985282 1.60702L1.01662 2.26448L1.96404 2.38298C3.22789 2.54106 3.6913 2.67875 4.20023 3.04742C4.9717 3.60626 5.44615 4.42723 5.74491 5.72027C6.20907 7.72914 6.37613 12.2595 6.29876 20.74C6.217 29.7006 6.10399 31.5643 5.53273 33.3721C5.0629 34.859 4.18845 35.6472 2.74406 35.8857C2.34654 35.9514 1.78339 36.0561 1.49264 36.1184L0.963989 36.2318V36.8021V37.3723H10.3855H19.807V36.7933Z" fill="#959595"/>
<path fill-rule="evenodd" clip-rule="evenodd" d="M42.6502 37.8094C44.518 37.3734 46.007 36.7077 47.3381 35.7136C50.5755 33.2958 52.3494 29.5884 52.5133 24.8981C52.6747 20.2742 51.2802 16.3327 48.5838 13.7913C46.3949 11.7283 43.6366 10.7395 40.0711 10.7395C36.2915 10.7395 33.2476 11.9114 30.9058 14.2681C28.3973 16.7926 27.0705 20.3143 27.0705 24.4476C27.0705 28.7355 28.2692 32.1969 30.5941 34.622C31.8759 35.9591 33.1237 36.7609 34.913 37.3975C35.5456 37.6225 36.0111 37.7306 37.7026 38.045C37.8473 38.0719 38.8184 38.0769 39.8606 38.0561C41.2714 38.028 41.9839 37.9649 42.6502 37.8094ZM35.0862 29.3719C35.7007 33.1447 36.9269 35.529 38.656 36.3134C39.3528 36.6295 40.6281 36.6119 41.349 36.2762C43.3377 35.3502 44.4038 32.6858 44.7514 27.7732C45.2358 20.9272 44.1131 15.2133 41.8889 13.2038C40.8875 12.299 39.3299 12.0029 38.206 12.5035C36.5664 13.2339 35.5133 15.396 35.0148 19.0557C34.6598 21.6617 34.6966 26.9803 35.0862 29.3719Z" fill="#959595"/>
<path d="M68.3356 36.8023V36.2323L67.5197 36.1634C65.6381 36.0045 65.1226 35.8157 64.6284 35.104C63.9123 34.0728 63.7564 32.1698 63.7564 24.4591V18.441L64.0174 18.1632C64.3466 17.8128 65.376 17.3237 66.1038 17.1719C67.5817 16.8637 69.4712 17.13 70.9489 17.8547C71.3729 18.0627 71.7377 18.2151 71.7594 18.1933C71.8029 18.1498 74.23 11.7361 74.3053 11.4656C74.3395 11.3428 74.1997 11.2359 73.7914 11.0725C72.9176 10.7229 72.1599 10.603 71.1825 10.6597C68.5681 10.8114 66.2479 12.5483 64.5766 15.6048C64.2992 16.1121 64.0119 16.5277 63.9381 16.5283C63.8309 16.529 63.8184 15.9461 63.876 13.6281L63.9481 10.727L63.6944 10.7868C63.5548 10.8197 61.451 11.2459 59.0193 11.7339C53.804 12.7806 53.0791 12.9331 52.9547 13.01C52.9033 13.0418 52.8612 13.2299 52.8612 13.428C52.8612 13.8255 52.8147 13.8025 53.9998 13.9931C55.6288 14.2551 56.2042 15.0494 56.4471 17.3714C56.7638 20.399 56.6373 32.2013 56.2708 33.8127C56.0834 34.6365 55.5992 35.43 55.1118 35.7119C54.9312 35.8164 54.3628 35.9841 53.8486 36.0845L52.9138 36.267L52.882 36.8197L52.8502 37.3723H60.5929H68.3356V36.8023Z" fill="#959595"/>
<path fill-rule="evenodd" clip-rule="evenodd" d="M88.2839 37.9501C91.4817 37.4705 93.8273 36.3723 95.8137 34.4248C98.685 31.6097 100.068 27.6367 99.8811 22.7401C99.7848 20.219 99.3731 18.5722 98.3283 16.5292C96.9127 13.7615 94.4918 11.8201 91.7429 11.2484C89.6809 10.8196 87.0278 11.1555 85.0106 12.1007C84.5079 12.3363 84.0267 12.5291 83.9413 12.5291C83.8057 12.5291 83.791 11.7495 83.8255 6.38897L83.8651 0.248894L83.4428 0.333552C83.2105 0.380114 80.8414 0.821539 78.1781 1.3145C75.5149 1.80745 73.2319 2.23514 73.105 2.26491C72.912 2.31016 72.8782 2.38372 72.8988 2.7133C72.9219 3.0806 72.952 3.11383 73.3402 3.19924C74.6747 3.49288 74.9123 3.59752 75.4085 4.11007C76.0163 4.73796 76.2909 5.53976 76.471 7.21301C76.6145 8.54636 76.6464 31.5182 76.5094 34.909L76.4281 36.9195L77.5137 37.1517C81.6241 38.0307 85.7214 38.3344 88.2839 37.9501ZM84.0228 36.1645C84.0883 36.2434 84.3158 36.3263 84.5286 36.3487C85.4787 36.449 86.5457 36.4139 87.0436 36.2661C87.8152 36.0369 88.8021 35.3357 89.3964 34.5943C90.6223 33.065 91.5029 30.6978 91.9868 27.6306C92.2186 26.1617 92.2498 22.0337 92.0382 20.8452C91.3885 17.1965 90.1375 14.9673 88.2331 14.0648C87.2848 13.6154 85.9472 13.5597 84.7048 13.9179L83.8626 14.1607L83.7672 17.4767C83.6469 21.6572 83.8424 35.9471 84.0228 36.1645Z" fill="#959595"/>
<path d="M138.655 37.9561C143.127 37.2768 146.015 34.8786 146.772 31.2141C147.138 29.4447 146.967 27.477 146.334 26.1613C145.447 24.3191 143.948 23.207 140.234 21.6368C137.475 20.4706 135.822 19.482 135.145 18.5942C134.585 17.8608 134.403 17.2969 134.411 16.3187C134.422 14.8433 134.981 13.7134 136.049 13.0088C136.943 12.4189 138.063 12.275 139.367 12.5825C140.943 12.9541 142.128 13.9214 143.199 15.7098C143.539 16.2789 144.24 17.8765 144.581 18.8624C144.634 19.0153 144.695 19.0218 145.062 18.9132C145.294 18.8449 145.516 18.7564 145.555 18.7167C145.595 18.6769 145.593 17.1689 145.55 15.3655L145.472 12.0865L145.09 11.9248C144.445 11.6519 142.763 11.1943 141.655 10.9905C140.821 10.8371 140.088 10.7974 138.128 10.7995C135.79 10.8021 135.599 10.8174 134.633 11.0794C131.827 11.8406 129.747 13.424 128.66 15.6258C128.082 16.7959 127.883 17.6979 127.889 19.1083C127.898 21.1108 128.444 22.5891 129.651 23.8806C130.689 24.9919 132.039 25.7847 134.339 26.6338C136.148 27.302 138.016 28.2349 138.724 28.8241C139.14 29.1703 139.467 29.5648 139.711 30.0148C140.058 30.6548 140.075 30.7394 140.076 31.7405C140.076 32.7049 140.048 32.8523 139.742 33.4985C138.942 35.187 137.342 36.0253 135.246 35.8539C132.398 35.621 130.393 33.7377 128.76 29.7618C128.335 28.7248 128.305 28.7033 127.658 28.9494L127.361 29.0624L127.435 32.77C127.501 36.0605 127.529 36.4928 127.686 36.6129C128.154 36.9719 131.184 37.691 133.286 37.942C134.918 38.1369 137.421 38.1435 138.655 37.9561Z" fill="#959595"/>
<path fill-rule="evenodd" clip-rule="evenodd" d="M117.282 37.9466C119.721 37.5511 122.123 36.3804 123.85 34.7457C124.795 33.8502 125.109 33.4181 124.977 33.1918C124.626 32.5877 124.642 32.5884 123.746 33.1388C122.319 34.0151 121.604 34.2567 119.928 34.4287C117.97 34.6296 116.164 34.3024 114.496 33.4444C113.389 32.8753 112.062 31.5661 111.399 30.3886C110.494 28.7817 110.003 26.9047 109.857 24.4925C109.796 23.4796 109.809 23.2272 109.928 23.1519C110.009 23.1005 113.519 23.0584 117.785 23.0575L125.496 23.0559V22.7512C125.496 22.0589 125.269 20.1978 125.065 19.2221C124.246 15.2989 122.084 12.5014 119 11.376C117.773 10.9281 116.612 10.7395 115.082 10.7395C111.456 10.7395 108.495 11.9288 106.204 14.3049C104.378 16.1994 103.294 18.3276 102.633 21.3189C102.434 22.2205 102.4 22.689 102.4 24.5823C102.4 26.4615 102.434 26.9462 102.628 27.8154C103.855 33.3367 107.487 36.9727 112.706 37.9041C114.029 38.1401 115.978 38.1583 117.282 37.9466ZM110.191 18.3188C109.997 19.2893 109.8 21.1631 109.879 21.2912C109.937 21.3841 114.656 21.3221 116.854 21.1996L117.949 21.1386L117.885 19.4919C117.756 16.1559 117.104 13.9021 115.966 12.8526C115.541 12.4616 114.971 12.2151 114.488 12.2138C114.369 12.2135 114.016 12.289 113.704 12.3816C113.251 12.5161 112.998 12.6905 112.442 13.25C111.41 14.2902 110.66 15.9795 110.191 18.3188Z" fill="#959595"/>
</svg>
