<svg width="23" height="23" viewBox="0 0 23 23" fill="none" xmlns="http://www.w3.org/2000/svg">
<circle cx="11.4829" cy="11.5425" r="11.1782" fill="#0D6CFA"/>
<g clip-path="url(#clip0_111_1618)">
<path d="M8.61578 10.1186L8.74412 10.1186C8.71324 9.84229 8.72581 9.5629 8.78139 9.29053C8.62347 9.32077 8.46025 9.3064 8.31004 9.24905C8.15983 9.1917 8.02857 9.09363 7.93099 8.96584C7.8334 8.83805 7.77335 8.6856 7.75758 8.52559C7.7418 8.36558 7.77092 8.20434 7.84167 8.05995C7.91242 7.91557 8.022 7.79375 8.15811 7.70817C8.29423 7.62258 8.4515 7.57662 8.61228 7.57543C8.77307 7.57424 8.931 7.61788 9.06837 7.70144C9.20574 7.785 9.3171 7.90518 9.38998 8.0485C9.57455 7.83562 9.79103 7.65266 10.0317 7.50615C9.87108 7.26079 9.64951 7.06134 9.38866 6.92734C9.12781 6.79335 8.83663 6.72939 8.54363 6.74174C8.25064 6.75408 7.96588 6.84231 7.71722 6.99778C7.46857 7.15325 7.26456 7.37063 7.12516 7.62864C6.98577 7.88664 6.91577 8.17643 6.92202 8.46961C6.92826 8.7628 7.01055 9.04934 7.16081 9.30117C7.31107 9.55301 7.52416 9.7615 7.77921 9.90623C8.03426 10.051 8.32253 10.127 8.61578 10.1268L8.61578 10.1186Z" fill="white"/>
<path d="M9.40864 11.5958C9.17397 11.3299 8.9939 11.0204 8.87871 10.685L8.61789 10.685C8.12636 10.6672 7.63642 10.7506 7.17848 10.9301C6.72054 11.1096 6.30438 11.3813 5.95581 11.7283L5.85645 11.8442L5.85645 14.7423L6.68446 14.7423L6.68446 12.163C7.22711 11.7147 7.91436 11.4793 8.61789 11.5006C8.88432 11.5007 9.14978 11.5327 9.40864 11.5958Z" fill="white"/>
<path d="M17.0065 11.7129C16.6626 11.3692 16.2519 11.0996 15.7997 10.9209C15.3476 10.7421 14.8635 10.658 14.3776 10.6737C14.2451 10.6737 14.1292 10.6737 14.005 10.6986C13.8836 11.0437 13.6935 11.3606 13.446 11.6301C13.7487 11.5427 14.0625 11.4994 14.3776 11.5017C15.0761 11.4789 15.7591 11.7114 16.2986 12.1559L16.2986 14.7517L17.1266 14.7517L17.1266 11.8288L17.0065 11.7129Z" fill="white"/>
<path d="M11.4202 11.6661C11.7862 11.6661 12.144 11.5576 12.4484 11.3542C12.7527 11.1509 12.9899 10.8618 13.13 10.5237C13.27 10.1855 13.3067 9.81341 13.2353 9.45443C13.1639 9.09544 12.9876 8.76569 12.7288 8.50688C12.47 8.24807 12.1402 8.07181 11.7812 8.0004C11.4223 7.929 11.0502 7.96565 10.712 8.10571C10.3738 8.24578 10.0848 8.48298 9.88147 8.78732C9.67812 9.09165 9.56958 9.44945 9.56958 9.81547C9.56958 10.3063 9.76456 10.777 10.1116 11.1241C10.4587 11.4711 10.9294 11.6661 11.4202 11.6661ZM11.4202 8.797C11.6225 8.797 11.8202 8.85698 11.9883 8.96934C12.1565 9.08171 12.2876 9.24142 12.365 9.42827C12.4424 9.61513 12.4626 9.82074 12.4232 10.0191C12.3837 10.2175 12.2863 10.3997 12.1433 10.5427C12.0003 10.6857 11.8181 10.7831 11.6197 10.8226C11.4213 10.862 11.2157 10.8418 11.0289 10.7644C10.842 10.687 10.6823 10.5559 10.5699 10.3877C10.4576 10.2196 10.3976 10.0219 10.3976 9.81961C10.3976 9.5484 10.5053 9.28829 10.6971 9.09652C10.8889 8.90474 11.149 8.797 11.4202 8.797Z" fill="white"/>
<path d="M11.5183 12.2573C10.9772 12.2382 10.4377 12.3289 9.93255 12.5238C9.42737 12.7188 8.96689 13.014 8.57884 13.3917L8.47534 13.5076L8.47534 16.5423C8.47695 16.628 8.4955 16.7125 8.52993 16.7911C8.56436 16.8696 8.61398 16.9405 8.67593 16.9998C8.73789 17.059 8.81095 17.1055 8.89092 17.1364C8.9709 17.1673 9.05619 17.182 9.1419 17.1798L13.8906 17.1798C13.9763 17.182 14.0616 17.1673 14.1416 17.1364C14.2215 17.1055 14.2946 17.059 14.3565 16.9998C14.4185 16.9405 14.4681 16.8696 14.5025 16.7911C14.537 16.7125 14.5555 16.628 14.5571 16.5423L14.5571 13.4993L14.4536 13.3834C14.0669 13.0055 13.6071 12.7107 13.1023 12.5171C12.5975 12.3234 12.0585 12.235 11.5183 12.2573ZM13.725 16.3477L9.29508 16.3477L9.29508 13.8388C9.92081 13.3273 10.7105 13.0597 11.5183 13.0853C12.3198 13.0583 13.1039 13.3231 13.725 13.8305L13.725 16.3477Z" fill="white"/>
<path d="M14.9446 9.05371C14.8315 9.16134 14.6902 9.23478 14.5371 9.26555C14.384 9.29631 14.2253 9.28316 14.0793 9.22759C14.1203 9.41529 14.1411 9.60682 14.1414 9.79893C14.1463 9.89271 14.1463 9.98667 14.1414 10.0805C14.2194 10.0944 14.2983 10.1027 14.3774 10.1053C14.6446 10.1044 14.9077 10.0401 15.1452 9.91776C15.3827 9.79542 15.5878 9.61848 15.7437 9.40148C15.4622 9.32396 15.1932 9.20686 14.9446 9.05371Z" fill="white"/>
<path d="M13.5246 6.95605C13.275 7.10068 13.0658 7.30567 12.916 7.55223C13.155 7.71114 13.3673 7.90675 13.5453 8.13184C13.5973 7.99899 13.6812 7.88098 13.7896 7.78821C13.6622 7.52482 13.573 7.24462 13.5246 6.95605Z" fill="white"/>
<path d="M16.5815 8.50533C17.7248 8.50533 18.6516 7.57854 18.6516 6.43528C18.6516 5.29203 17.7248 4.36523 16.5815 4.36523C15.4383 4.36523 14.5115 5.29203 14.5115 6.43528C14.5115 7.57854 15.4383 8.50533 16.5815 8.50533Z" fill="white"/>
</g>
<defs>
<clipPath id="clip0_111_1618">
<rect width="14.9043" height="14.9043" fill="white" transform="translate(4.02808 4.08984)"/>
</clipPath>
</defs>
</svg>
