<svg width="23" height="23" viewBox="0 0 23 23" fill="none" xmlns="http://www.w3.org/2000/svg">
<circle cx="11.5032" cy="11.5396" r="11.1782" fill="#FA9B0D"/>
<g clip-path="url(#clip0_111_1604)">
<path d="M11.4605 11.2493C12.5784 11.2493 13.4478 10.3385 13.4478 9.22064C13.4478 8.10282 12.537 7.2334 11.4191 7.2334C10.3013 7.2334 9.43188 8.14422 9.43188 9.22064C9.43188 10.3385 10.3427 11.2493 11.4605 11.2493ZM11.4191 8.06142C11.4605 8.06142 11.4605 8.06142 11.4191 8.06142C12.0815 8.06142 12.6198 8.59963 12.6198 9.26204C12.6198 9.92446 12.0815 10.4213 11.4191 10.4213C10.7567 10.4213 10.2599 9.88306 10.2599 9.26204C10.2599 8.59963 10.7981 8.06142 11.4191 8.06142Z" fill="white"/>
<path d="M17.586 10.9981C16.7994 10.2943 15.7644 9.92168 14.6879 9.96308L14.3567 9.96308C14.2739 10.2943 14.1497 10.5841 13.9841 10.8325C14.2325 10.7911 14.4395 10.7911 14.6879 10.7911C15.4746 10.7497 16.2612 10.9981 16.8822 11.4535L16.8822 14.4344L17.7102 14.4344L17.7102 11.1223L17.586 10.9981Z" fill="white"/>
<path d="M13.7349 7.31622C13.9419 6.81941 14.5215 6.571 15.0597 6.77801C15.5565 6.98501 15.8049 7.56463 15.5979 8.10284C15.4323 8.47545 15.0597 8.72385 14.6871 8.72385C14.6043 8.72385 14.4801 8.72385 14.3973 8.68245C14.4387 8.88945 14.4387 9.09646 14.4387 9.26206L14.4387 9.51047C14.5215 9.51047 14.6043 9.55187 14.6871 9.55187C15.7221 9.55187 16.5501 8.72385 16.5501 7.73023C16.5501 6.69521 15.7221 5.86719 14.7285 5.86719C14.0661 5.86719 13.4865 6.19839 13.1553 6.77801C13.3623 6.90221 13.5693 7.06781 13.7349 7.31622Z" fill="white"/>
<path d="M9.01978 10.8813C8.85418 10.6329 8.72998 10.3431 8.64718 10.0119L8.31597 10.0119C7.23954 9.97051 6.20452 10.3431 5.4179 11.0055L5.2937 11.1297L5.2937 14.4418L6.12172 14.4418L6.12172 11.4609C6.78413 11.0055 7.52935 10.7571 8.31597 10.7985C8.56437 10.7985 8.81278 10.8399 9.01978 10.8813Z" fill="white"/>
<path d="M8.30821 9.50827C8.39101 9.50827 8.47382 9.50827 8.55662 9.46687L8.55662 9.21846C8.55662 9.01146 8.55662 8.80445 8.59802 8.63885C8.51522 8.68025 8.39101 8.68025 8.30821 8.68025C7.77 8.68025 7.31459 8.22484 7.31459 7.68663C7.31459 7.14842 7.77 6.69301 8.30821 6.69301C8.72222 6.69301 9.09483 6.94141 9.26043 7.31402C9.42604 7.10702 9.67444 6.90001 9.88145 6.73441C9.34324 5.86499 8.22541 5.57518 7.35599 6.11339C6.48657 6.65161 6.19676 7.76943 6.73498 8.63885C7.06618 9.17706 7.6458 9.50827 8.30821 9.50827Z" fill="white"/>
<path d="M14.8555 13.4852L14.7727 13.361C13.9447 12.4502 12.7854 11.912 11.5434 11.9534C10.3014 11.912 9.10076 12.4502 8.27274 13.361L8.18994 13.4852L8.18994 16.6317C8.18994 17.0043 8.47975 17.3355 8.89376 17.3355L14.1931 17.3355C14.5657 17.3355 14.8969 17.0043 14.8969 16.6317L14.8969 13.4852L14.8555 13.4852ZM14.0275 16.5075L9.01796 16.5075L9.01796 13.775C9.68037 13.1126 10.5912 12.7814 11.5434 12.7814C12.4542 12.74 13.3651 13.1126 14.0275 13.775L14.0275 16.5075Z" fill="white"/>
</g>
<defs>
<clipPath id="clip0_111_1604">
<rect width="14.9043" height="14.9043" fill="white" transform="translate(4.04907 4.08594)"/>
</clipPath>
</defs>
</svg>
