<svg width="24" height="23" viewBox="0 0 24 23" fill="none" xmlns="http://www.w3.org/2000/svg">
<circle cx="11.866" cy="11.5464" r="11.1782" fill="#0BAE1B"/>
<g clip-path="url(#clip0_111_1643)">
<path d="M14.9922 10.0113C15.077 9.92347 15.1239 9.80582 15.1229 9.68369C15.1218 9.56157 15.0728 9.44475 14.9865 9.3584C14.9001 9.27204 14.7833 9.22306 14.6612 9.222C14.5391 9.22094 14.4214 9.26788 14.3336 9.35273L11.1697 12.5166L9.63591 10.9829C9.54807 10.898 9.43042 10.8511 9.3083 10.8522C9.18618 10.8532 9.06936 10.9022 8.983 10.9886C8.89665 11.0749 8.84766 11.1917 8.8466 11.3139C8.84554 11.436 8.89249 11.5536 8.97733 11.6415L10.8404 13.5045C10.9277 13.5918 11.0462 13.6409 11.1697 13.6409C11.2932 13.6409 11.4116 13.5918 11.499 13.5045L14.9922 10.0113ZM11.8683 5.02441C8.26704 5.02441 5.34766 7.9438 5.34766 11.5451C5.34766 15.1463 8.26704 18.0657 11.8683 18.0657C15.4696 18.0657 18.3889 15.1463 18.3889 11.5451C18.3889 7.9438 15.4696 5.02441 11.8683 5.02441ZM6.27918 11.5451C6.27918 8.45847 8.78171 5.95593 11.8683 5.95593C14.9549 5.95594 17.4574 8.45847 17.4574 11.5451C17.4574 14.6317 14.9549 17.1342 11.8683 17.1342C8.78171 17.1342 6.27918 14.6317 6.27918 11.5451Z" fill="white"/>
</g>
<defs>
<clipPath id="clip0_111_1643">
<rect width="14.9043" height="14.9043" fill="white" transform="translate(4.41382 4.0918)"/>
</clipPath>
</defs>
</svg>
