<svg width="23" height="23" viewBox="0 0 23 23" fill="none" xmlns="http://www.w3.org/2000/svg">
<circle cx="11.3728" cy="11.5425" r="11.1782" fill="#CE545C"/>
<g clip-path="url(#clip0_111_1634)">
<path d="M14.0496 11.0729L11.8372 11.0729L11.8372 8.86058C11.8372 8.79654 11.7848 8.74414 11.7208 8.74414L11.0221 8.74414C10.9581 8.74414 10.9057 8.79654 10.9057 8.86058L10.9057 11.0729L8.69334 11.0729C8.6293 11.0729 8.5769 11.1253 8.5769 11.1894L8.5769 11.888C8.5769 11.9521 8.6293 12.0045 8.69334 12.0045L10.9057 12.0045L10.9057 14.2168C10.9057 14.2809 10.9581 14.3333 11.0221 14.3333L11.7208 14.3333C11.7848 14.3333 11.8372 14.2809 11.8372 14.2168L11.8372 12.0045L14.0496 12.0045C14.1136 12.0045 14.166 11.9521 14.166 11.888L14.166 11.1894C14.166 11.1253 14.1136 11.0729 14.0496 11.0729Z" fill="white"/>
<path d="M11.3698 5.02246C7.76886 5.02246 4.84912 7.9422 4.84912 11.5431C4.84912 15.144 7.76886 18.0638 11.3698 18.0638C14.9707 18.0638 17.8904 15.144 17.8904 11.5431C17.8904 7.9422 14.9707 5.02246 11.3698 5.02246ZM11.3698 16.9576C8.38017 16.9576 5.9553 14.5327 5.9553 11.5431C5.9553 8.55351 8.38017 6.12864 11.3698 6.12864C14.3594 6.12864 16.7842 8.55351 16.7842 11.5431C16.7842 14.5327 14.3594 16.9576 11.3698 16.9576Z" fill="white"/>
</g>
<defs>
<clipPath id="clip0_111_1634">
<rect width="14.9043" height="14.9043" fill="white" transform="translate(3.9187 4.08789)"/>
</clipPath>
</defs>
</svg>
