<svg width="23" height="23" viewBox="0 0 23 23" fill="none" xmlns="http://www.w3.org/2000/svg">
<circle cx="11.3513" cy="11.5396" r="11.1782" fill="#F4D402"/>
<path d="M16.3964 8.25025L14.6389 6.49278C14.2899 6.14329 13.8163 5.94672 13.3224 5.94629L9.38516 5.94629C8.89122 5.94672 8.41766 6.14329 8.06861 6.49278L6.31114 8.25025C5.96165 8.5993 5.76508 9.07286 5.76465 9.5668L5.76465 15.2615C5.76465 15.7556 5.96093 16.2295 6.31032 16.5789C6.65971 16.9283 7.13358 17.1245 7.62769 17.1245L15.0799 17.1245C15.574 17.1245 16.0478 16.9283 16.3972 16.5789C16.7466 16.2295 16.9429 15.7556 16.9429 15.2615L16.9429 9.5668C16.9425 9.07286 16.7459 8.5993 16.3964 8.25025ZM8.94424 7.36841C9.06325 7.25493 9.22074 7.1906 9.38516 7.18832L13.3224 7.18832C13.4868 7.1906 13.6443 7.25493 13.7633 7.36841L14.8252 8.43034L7.88231 8.43034L8.94424 7.36841ZM15.0799 15.8825L7.62769 15.8825C7.46299 15.8825 7.30503 15.8171 7.18857 15.7006C7.0721 15.5842 7.00668 15.4262 7.00668 15.2615L7.00668 9.67237L15.7009 9.67237L15.7009 15.2615C15.7009 15.4262 15.6354 15.5842 15.519 15.7006C15.4025 15.8171 15.2446 15.8825 15.0799 15.8825Z" fill="white"/>
<path d="M13.2118 10.915C13.0471 10.915 12.8892 10.9805 12.7727 11.0969C12.6563 11.2134 12.5908 11.3713 12.5908 11.5361C12.5908 11.8655 12.46 12.1814 12.227 12.4143C11.9941 12.6472 11.6782 12.7781 11.3488 12.7781C11.0194 12.7781 10.7035 12.6472 10.4706 12.4143C10.2376 12.1814 10.1068 11.8655 10.1068 11.5361C10.1068 11.3713 10.0413 11.2134 9.92488 11.0969C9.80842 10.9805 9.65046 10.915 9.48576 10.915C9.32106 10.915 9.1631 10.9805 9.04664 11.0969C8.93017 11.2134 8.86475 11.3713 8.86475 11.5361C8.86475 12.1949 9.12646 12.8267 9.59231 13.2925C10.0582 13.7584 10.69 14.0201 11.3488 14.0201C12.0076 14.0201 12.6394 13.7584 13.1053 13.2925C13.5711 12.8267 13.8329 12.1949 13.8329 11.5361C13.8329 11.3713 13.7674 11.2134 13.651 11.0969C13.5345 10.9805 13.3765 10.915 13.2118 10.915Z" fill="white"/>
</svg>
