<svg width="23" height="23" viewBox="0 0 23 23" fill="none" xmlns="http://www.w3.org/2000/svg">
<circle cx="11.2495" cy="11.5445" r="11.1782" fill="#FF3434"/>
<g clip-path="url(#clip0_111_1660)">
<path d="M11.2492 4.9209C9.93902 4.9209 8.65831 5.3094 7.56897 6.03727C6.47964 6.76514 5.6306 7.79969 5.12924 9.01009C4.62787 10.2205 4.49669 11.5524 4.75228 12.8374C5.00788 14.1223 5.63877 15.3026 6.56517 16.229C7.49158 17.1554 8.67189 17.7863 9.95684 18.0419C11.2418 18.2975 12.5737 18.1663 13.7841 17.665C14.9945 17.1636 16.0291 16.3146 16.7569 15.2252C17.4848 14.1359 17.8733 12.8552 17.8733 11.545C17.8733 9.78821 17.1754 8.10334 15.9331 6.86107C14.6909 5.6188 13.006 4.9209 11.2492 4.9209ZM5.45302 11.545C5.45342 10.1523 5.95783 8.80669 6.87307 7.75686L15.0373 15.9211C14.1977 16.6462 13.1676 17.1151 12.0694 17.272C10.9711 17.429 9.85094 17.2676 8.84177 16.8068C7.8326 16.346 6.97686 15.6053 6.37617 14.6726C5.77549 13.7399 5.45509 12.6544 5.45302 11.545ZM15.6252 15.3332L7.46097 7.16897C8.5719 6.24073 9.98999 5.76183 11.4362 5.82649C12.8825 5.89115 14.2522 6.49468 15.2758 7.51835C16.2995 8.54203 16.9031 9.91172 16.9677 11.358C17.0324 12.8042 16.5535 14.2223 15.6252 15.3332Z" fill="white"/>
</g>
<defs>
<clipPath id="clip0_111_1660">
<rect width="14.9043" height="14.9043" fill="white" transform="translate(3.80176 4.09375)"/>
</clipPath>
</defs>
</svg>
