<svg width="188" height="53" viewBox="0 0 188 53" fill="none" xmlns="http://www.w3.org/2000/svg">
<rect width="188" height="53" rx="8" fill="#121212"/>
<path d="M72.004 14.764C72.004 15.62 71.832 16.368 71.488 17.008C71.144 17.64 70.636 18.132 69.964 18.484C69.3 18.828 68.5 19 67.564 19H64.876V10.54H67.564C68.5 10.54 69.3 10.712 69.964 11.056C70.636 11.392 71.144 11.88 71.488 12.52C71.832 13.152 72.004 13.9 72.004 14.764ZM67.48 18.016C68.584 18.016 69.428 17.732 70.012 17.164C70.596 16.596 70.888 15.796 70.888 14.764C70.888 13.732 70.596 12.932 70.012 12.364C69.436 11.788 68.592 11.5 67.48 11.5H65.968V18.016H67.48ZM76.4656 12.328C77.0976 12.328 77.6616 12.464 78.1576 12.736C78.6616 13.008 79.0536 13.4 79.3336 13.912C79.6216 14.424 79.7656 15.024 79.7656 15.712C79.7656 16.4 79.6216 17 79.3336 17.512C79.0536 18.016 78.6616 18.404 78.1576 18.676C77.6616 18.948 77.0976 19.084 76.4656 19.084C75.8336 19.084 75.2656 18.948 74.7616 18.676C74.2656 18.404 73.8736 18.016 73.5856 17.512C73.2976 17 73.1536 16.4 73.1536 15.712C73.1536 15.024 73.2976 14.424 73.5856 13.912C73.8736 13.4 74.2656 13.008 74.7616 12.736C75.2656 12.464 75.8336 12.328 76.4656 12.328ZM76.4656 13.288C76.0736 13.288 75.7096 13.376 75.3736 13.552C75.0456 13.728 74.7776 14 74.5696 14.368C74.3696 14.728 74.2696 15.176 74.2696 15.712C74.2696 16.24 74.3696 16.688 74.5696 17.056C74.7776 17.416 75.0456 17.684 75.3736 17.86C75.7096 18.036 76.0736 18.124 76.4656 18.124C76.8576 18.124 77.2176 18.036 77.5456 17.86C77.8816 17.684 78.1496 17.416 78.3496 17.056C78.5576 16.688 78.6616 16.24 78.6616 15.712C78.6616 15.176 78.5576 14.728 78.3496 14.368C78.1496 14 77.8816 13.728 77.5456 13.552C77.2176 13.376 76.8576 13.288 76.4656 13.288ZM90.2365 12.412L88.3405 19H87.1645L85.3525 13.636L83.5285 19H82.3405L80.4685 12.412H81.5725L82.9765 17.956L84.8005 12.412H85.9405L87.7765 17.944L89.1925 12.412H90.2365ZM94.7229 12.304C95.4909 12.304 96.1109 12.552 96.5829 13.048C97.0549 13.536 97.2909 14.244 97.2909 15.172V19H96.1989V15.268C96.1989 14.612 96.0309 14.108 95.6949 13.756C95.3589 13.404 94.9029 13.228 94.3269 13.228C93.7269 13.228 93.2469 13.424 92.8869 13.816C92.5269 14.2 92.3469 14.764 92.3469 15.508V19H91.2549V12.412H92.3469V13.972C92.5149 13.436 92.8109 13.024 93.2349 12.736C93.6669 12.448 94.1629 12.304 94.7229 12.304ZM100.058 10.12V19H98.9658V10.12H100.058ZM104.802 12.328C105.434 12.328 105.998 12.464 106.494 12.736C106.998 13.008 107.39 13.4 107.67 13.912C107.958 14.424 108.102 15.024 108.102 15.712C108.102 16.4 107.958 17 107.67 17.512C107.39 18.016 106.998 18.404 106.494 18.676C105.998 18.948 105.434 19.084 104.802 19.084C104.17 19.084 103.602 18.948 103.098 18.676C102.602 18.404 102.21 18.016 101.922 17.512C101.634 17 101.49 16.4 101.49 15.712C101.49 15.024 101.634 14.424 101.922 13.912C102.21 13.4 102.602 13.008 103.098 12.736C103.602 12.464 104.17 12.328 104.802 12.328ZM104.802 13.288C104.41 13.288 104.046 13.376 103.71 13.552C103.382 13.728 103.114 14 102.906 14.368C102.706 14.728 102.606 15.176 102.606 15.712C102.606 16.24 102.706 16.688 102.906 17.056C103.114 17.416 103.382 17.684 103.71 17.86C104.046 18.036 104.41 18.124 104.802 18.124C105.194 18.124 105.554 18.036 105.882 17.86C106.218 17.684 106.486 17.416 106.686 17.056C106.894 16.688 106.997 16.24 106.997 15.712C106.997 15.176 106.894 14.728 106.686 14.368C106.486 14 106.218 13.728 105.882 13.552C105.554 13.376 105.194 13.288 104.802 13.288ZM112.224 12.328C112.864 12.328 113.404 12.488 113.844 12.808C114.292 13.128 114.604 13.556 114.78 14.092V12.412H115.872V19H114.78V17.32C114.604 17.856 114.292 18.284 113.844 18.604C113.404 18.924 112.864 19.084 112.224 19.084C111.64 19.084 111.12 18.948 110.664 18.676C110.208 18.404 109.848 18.016 109.584 17.512C109.328 17 109.2 16.4 109.2 15.712C109.2 15.024 109.328 14.424 109.584 13.912C109.848 13.4 110.208 13.008 110.664 12.736C111.12 12.464 111.64 12.328 112.224 12.328ZM112.536 13.3C111.864 13.3 111.324 13.516 110.916 13.948C110.516 14.372 110.316 14.96 110.316 15.712C110.316 16.464 110.516 17.056 110.916 17.488C111.324 17.912 111.864 18.124 112.536 18.124C112.968 18.124 113.352 18.024 113.688 17.824C114.032 17.624 114.3 17.344 114.492 16.984C114.684 16.616 114.78 16.192 114.78 15.712C114.78 15.232 114.684 14.808 114.492 14.44C114.3 14.072 114.032 13.792 113.688 13.6C113.352 13.4 112.968 13.3 112.536 13.3ZM120.31 12.328C120.95 12.328 121.49 12.488 121.93 12.808C122.378 13.128 122.69 13.556 122.866 14.092V10.12H123.958V19H122.866V17.32C122.69 17.856 122.378 18.284 121.93 18.604C121.49 18.924 120.95 19.084 120.31 19.084C119.726 19.084 119.206 18.948 118.75 18.676C118.294 18.404 117.934 18.016 117.67 17.512C117.414 17 117.286 16.4 117.286 15.712C117.286 15.024 117.414 14.424 117.67 13.912C117.934 13.4 118.294 13.008 118.75 12.736C119.206 12.464 119.726 12.328 120.31 12.328ZM120.622 13.3C119.95 13.3 119.41 13.516 119.002 13.948C118.602 14.372 118.402 14.96 118.402 15.712C118.402 16.464 118.602 17.056 119.002 17.488C119.41 17.912 119.95 18.124 120.622 18.124C121.054 18.124 121.438 18.024 121.774 17.824C122.118 17.624 122.386 17.344 122.578 16.984C122.77 16.616 122.866 16.192 122.866 15.712C122.866 15.232 122.77 14.808 122.578 14.44C122.386 14.072 122.118 13.792 121.774 13.6C121.438 13.4 121.054 13.3 120.622 13.3ZM131.649 12.328C132.281 12.328 132.845 12.464 133.341 12.736C133.845 13.008 134.237 13.4 134.517 13.912C134.805 14.424 134.949 15.024 134.949 15.712C134.949 16.4 134.805 17 134.517 17.512C134.237 18.016 133.845 18.404 133.341 18.676C132.845 18.948 132.281 19.084 131.649 19.084C131.017 19.084 130.449 18.948 129.945 18.676C129.449 18.404 129.057 18.016 128.769 17.512C128.481 17 128.337 16.4 128.337 15.712C128.337 15.024 128.481 14.424 128.769 13.912C129.057 13.4 129.449 13.008 129.945 12.736C130.449 12.464 131.017 12.328 131.649 12.328ZM131.649 13.288C131.257 13.288 130.893 13.376 130.557 13.552C130.229 13.728 129.961 14 129.753 14.368C129.553 14.728 129.453 15.176 129.453 15.712C129.453 16.24 129.553 16.688 129.753 17.056C129.961 17.416 130.229 17.684 130.557 17.86C130.893 18.036 131.257 18.124 131.649 18.124C132.041 18.124 132.401 18.036 132.729 17.86C133.065 17.684 133.333 17.416 133.533 17.056C133.741 16.688 133.845 16.24 133.845 15.712C133.845 15.176 133.741 14.728 133.533 14.368C133.333 14 133.065 13.728 132.729 13.552C132.401 13.376 132.041 13.288 131.649 13.288ZM139.84 12.304C140.608 12.304 141.228 12.552 141.7 13.048C142.172 13.536 142.408 14.244 142.408 15.172V19H141.316V15.268C141.316 14.612 141.148 14.108 140.812 13.756C140.476 13.404 140.02 13.228 139.444 13.228C138.844 13.228 138.364 13.424 138.004 13.816C137.644 14.2 137.464 14.764 137.464 15.508V19H136.372V12.412H137.464V13.972C137.632 13.436 137.928 13.024 138.352 12.736C138.784 12.448 139.28 12.304 139.84 12.304Z" fill="white"/>
<path fill-rule="evenodd" clip-rule="evenodd" d="M24.2064 14.0721C23.9064 14.3941 23.7344 14.8901 23.7344 15.5348V38.4574C23.7344 39.1021 23.9064 39.5981 24.2177 39.9087L24.299 39.9774L37.143 27.1334V26.8448L24.2877 14.0034L24.2064 14.0721Z" fill="url(#paint0_linear_108_442)"/>
<path fill-rule="evenodd" clip-rule="evenodd" d="M41.4149 31.4312L37.1309 27.1459V26.8459L41.4162 22.5605L41.5089 22.6179L46.5775 25.4985C48.0289 26.3165 48.0289 27.6645 46.5775 28.4939L41.5089 31.3745C41.5075 31.3739 41.4149 31.4312 41.4149 31.4312Z" fill="url(#paint1_linear_108_442)"/>
<path fill-rule="evenodd" clip-rule="evenodd" d="M41.5071 31.3741L37.1304 26.9961L24.2051 39.9214C24.6771 40.4288 25.4717 40.4861 26.3597 39.9901L41.5071 31.3741Z" fill="url(#paint2_linear_108_442)"/>
<path fill-rule="evenodd" clip-rule="evenodd" d="M41.5071 22.6196L26.3597 14.0149C25.4731 13.5076 24.6771 13.5762 24.2051 14.0836L37.1291 26.9962L41.5071 22.6196Z" fill="url(#paint3_linear_108_442)"/>
<path d="M71.038 27.166C72.586 27.166 73.87 27.55 74.89 28.318C75.91 29.074 76.564 30.1 76.852 31.396H74.188C73.936 30.82 73.534 30.364 72.982 30.028C72.442 29.68 71.8 29.506 71.056 29.506C70.324 29.506 69.676 29.674 69.112 30.01C68.548 30.346 68.11 30.826 67.798 31.45C67.486 32.074 67.33 32.806 67.33 33.646C67.33 34.978 67.684 36.016 68.392 36.76C69.112 37.504 70.09 37.876 71.326 37.876C72.238 37.876 73.018 37.606 73.666 37.066C74.326 36.526 74.752 35.776 74.944 34.816H70.642V32.998H77.068V35.446C76.888 36.286 76.534 37.06 76.006 37.768C75.49 38.476 74.806 39.046 73.954 39.478C73.114 39.898 72.148 40.108 71.056 40.108C69.808 40.108 68.704 39.838 67.744 39.298C66.796 38.746 66.058 37.984 65.53 37.012C65.014 36.028 64.756 34.906 64.756 33.646C64.756 32.386 65.014 31.27 65.53 30.298C66.058 29.314 66.796 28.546 67.744 27.994C68.692 27.442 69.79 27.166 71.038 27.166ZM83.5764 29.902C84.5484 29.902 85.4184 30.106 86.1864 30.514C86.9664 30.922 87.5784 31.516 88.0224 32.296C88.4664 33.064 88.6884 33.97 88.6884 35.014C88.6884 36.058 88.4664 36.964 88.0224 37.732C87.5784 38.5 86.9664 39.094 86.1864 39.514C85.4184 39.922 84.5484 40.126 83.5764 40.126C82.6044 40.126 81.7284 39.922 80.9484 39.514C80.1804 39.094 79.5744 38.5 79.1304 37.732C78.6864 36.964 78.4644 36.058 78.4644 35.014C78.4644 33.97 78.6864 33.064 79.1304 32.296C79.5744 31.516 80.1804 30.922 80.9484 30.514C81.7284 30.106 82.6044 29.902 83.5764 29.902ZM83.5764 32.098C82.8684 32.098 82.2684 32.35 81.7764 32.854C81.2844 33.346 81.0384 34.066 81.0384 35.014C81.0384 35.962 81.2844 36.688 81.7764 37.192C82.2684 37.684 82.8684 37.93 83.5764 37.93C84.2844 37.93 84.8844 37.684 85.3764 37.192C85.8684 36.688 86.1144 35.962 86.1144 35.014C86.1144 34.066 85.8684 33.346 85.3764 32.854C84.8844 32.35 84.2844 32.098 83.5764 32.098ZM95.0901 29.902C96.0621 29.902 96.9321 30.106 97.7001 30.514C98.4801 30.922 99.0921 31.516 99.5361 32.296C99.9801 33.064 100.202 33.97 100.202 35.014C100.202 36.058 99.9801 36.964 99.5361 37.732C99.0921 38.5 98.4801 39.094 97.7001 39.514C96.9321 39.922 96.0621 40.126 95.0901 40.126C94.1181 40.126 93.2421 39.922 92.4621 39.514C91.6941 39.094 91.0881 38.5 90.6441 37.732C90.2001 36.964 89.9781 36.058 89.9781 35.014C89.9781 33.97 90.2001 33.064 90.6441 32.296C91.0881 31.516 91.6941 30.922 92.4621 30.514C93.2421 30.106 94.1181 29.902 95.0901 29.902ZM95.0901 32.098C94.3821 32.098 93.7821 32.35 93.2901 32.854C92.7981 33.346 92.5521 34.066 92.5521 35.014C92.5521 35.962 92.7981 36.688 93.2901 37.192C93.7821 37.684 94.3821 37.93 95.0901 37.93C95.7981 37.93 96.3981 37.684 96.8901 37.192C97.3821 36.688 97.6281 35.962 97.6281 35.014C97.6281 34.066 97.3821 33.346 96.8901 32.854C96.3981 32.35 95.7981 32.098 95.0901 32.098ZM105.902 29.902C106.742 29.902 107.462 30.1 108.062 30.496C108.662 30.892 109.088 31.426 109.34 32.098V30.028H111.86V40.036C111.86 40.96 111.674 41.788 111.302 42.52C110.942 43.264 110.396 43.846 109.664 44.266C108.944 44.686 108.068 44.896 107.036 44.896C105.596 44.896 104.432 44.554 103.544 43.87C102.656 43.186 102.116 42.256 101.924 41.08H104.426C104.57 41.584 104.846 41.974 105.254 42.25C105.674 42.538 106.208 42.682 106.856 42.682C107.6 42.682 108.2 42.46 108.656 42.016C109.112 41.584 109.34 40.924 109.34 40.036V37.912C109.088 38.584 108.662 39.124 108.062 39.532C107.462 39.928 106.742 40.126 105.902 40.126C105.062 40.126 104.306 39.922 103.634 39.514C102.962 39.106 102.434 38.518 102.05 37.75C101.678 36.97 101.492 36.058 101.492 35.014C101.492 33.97 101.678 33.064 102.05 32.296C102.434 31.516 102.962 30.922 103.634 30.514C104.306 30.106 105.062 29.902 105.902 29.902ZM106.694 32.116C105.902 32.116 105.266 32.374 104.786 32.89C104.306 33.406 104.066 34.114 104.066 35.014C104.066 35.914 104.306 36.622 104.786 37.138C105.266 37.642 105.902 37.894 106.694 37.894C107.462 37.894 108.092 37.636 108.584 37.12C109.088 36.592 109.34 35.89 109.34 35.014C109.34 34.126 109.088 33.424 108.584 32.908C108.092 32.38 107.462 32.116 106.694 32.116ZM116.698 26.68V40H114.16V26.68H116.698ZM128.372 34.636C128.372 34.888 128.342 35.176 128.282 35.5H120.974C121.01 36.388 121.25 37.042 121.694 37.462C122.138 37.882 122.69 38.092 123.35 38.092C123.938 38.092 124.424 37.948 124.808 37.66C125.204 37.372 125.456 36.982 125.564 36.49H128.246C128.114 37.186 127.832 37.81 127.4 38.362C126.968 38.914 126.41 39.346 125.726 39.658C125.054 39.97 124.304 40.126 123.476 40.126C122.504 40.126 121.64 39.922 120.884 39.514C120.128 39.094 119.54 38.5 119.12 37.732C118.7 36.964 118.49 36.058 118.49 35.014C118.49 33.97 118.7 33.064 119.12 32.296C119.54 31.516 120.128 30.922 120.884 30.514C121.64 30.106 122.504 29.902 123.476 29.902C124.46 29.902 125.318 30.106 126.05 30.514C126.794 30.922 127.364 31.486 127.76 32.206C128.168 32.914 128.372 33.724 128.372 34.636ZM125.816 34.384C125.852 33.568 125.636 32.95 125.168 32.53C124.712 32.11 124.148 31.9 123.476 31.9C122.792 31.9 122.216 32.11 121.748 32.53C121.28 32.95 121.022 33.568 120.974 34.384H125.816ZM136.631 35.284V40H134.093V27.292H138.719C140.219 27.292 141.347 27.652 142.103 28.372C142.871 29.092 143.255 30.07 143.255 31.306C143.255 32.518 142.859 33.484 142.067 34.204C141.287 34.924 140.171 35.284 138.719 35.284H136.631ZM138.449 33.25C139.937 33.25 140.681 32.602 140.681 31.306C140.681 30.67 140.507 30.184 140.159 29.848C139.811 29.512 139.241 29.344 138.449 29.344H136.631V33.25H138.449ZM147.442 26.68V40H144.904V26.68H147.442ZM153.644 29.902C154.484 29.902 155.204 30.1 155.804 30.496C156.404 30.892 156.83 31.426 157.082 32.098V30.028H159.602V40H157.082V37.912C156.83 38.584 156.404 39.124 155.804 39.532C155.204 39.928 154.484 40.126 153.644 40.126C152.804 40.126 152.048 39.922 151.376 39.514C150.704 39.106 150.176 38.518 149.792 37.75C149.42 36.97 149.234 36.058 149.234 35.014C149.234 33.97 149.42 33.064 149.792 32.296C150.176 31.516 150.704 30.922 151.376 30.514C152.048 30.106 152.804 29.902 153.644 29.902ZM154.436 32.116C153.644 32.116 153.008 32.374 152.528 32.89C152.048 33.406 151.808 34.114 151.808 35.014C151.808 35.914 152.048 36.622 152.528 37.138C153.008 37.642 153.644 37.894 154.436 37.894C155.204 37.894 155.834 37.636 156.326 37.12C156.83 36.592 157.082 35.89 157.082 35.014C157.082 34.126 156.83 33.424 156.326 32.908C155.834 32.38 155.204 32.116 154.436 32.116ZM163.612 30.028L166.33 36.796L168.85 30.028H171.64L165.538 44.752H162.73L164.98 39.712L160.786 30.028H163.612Z" fill="white"/>
<defs>
<linearGradient id="paint0_linear_108_442" x1="44.795" y1="6.47099" x2="17.0772" y2="13.8616" gradientUnits="userSpaceOnUse">
<stop stop-color="#047ED6"/>
<stop offset="1" stop-color="#50E6FF"/>
</linearGradient>
<linearGradient id="paint1_linear_108_442" x1="48.4678" y1="26.9949" x2="34.098" y2="26.9949" gradientUnits="userSpaceOnUse">
<stop stop-color="#FFDA1C"/>
<stop offset="1" stop-color="#FEB705"/>
</linearGradient>
<linearGradient id="paint2_linear_108_442" x1="39.1235" y1="29.3751" x2="22.6093" y2="57.1743" gradientUnits="userSpaceOnUse">
<stop stop-color="#D9414F"/>
<stop offset="1" stop-color="#8C193F"/>
</linearGradient>
<linearGradient id="paint3_linear_108_442" x1="20.9493" y1="6.44464" x2="28.3163" y2="18.8614" gradientUnits="userSpaceOnUse">
<stop stop-color="#33C481"/>
<stop offset="1" stop-color="#61E3A7"/>
</linearGradient>
</defs>
</svg>
