<svg width="142" height="39" viewBox="0 0 142 39" fill="none" xmlns="http://www.w3.org/2000/svg">
<path d="M19.4903 35.8382C17.3581 36.2127 15.1883 36.3249 12.9438 36.6239L6.09766 16.5725V37.4845C3.9654 37.7089 2.02014 38.0081 0 38.3074V0H5.68641L13.4674 21.7353V0H19.4903V35.8382ZM31.2744 14.0286C33.594 14.0286 37.1478 13.9163 39.2801 13.9163V19.9017C36.6239 19.9017 33.5191 19.9017 31.2744 20.014V28.9176C34.7911 28.6932 38.3075 28.3937 41.8613 28.2814V34.0422L25.2887 35.3518V0H41.8613V5.98554H31.2744V14.0286ZM64.1199 5.98568H57.91V33.5191C55.8899 33.5191 53.8697 33.5191 51.9248 33.5937V5.98568H45.7148V0H64.1202L64.1199 5.98568ZM73.8464 13.6172H82.0392V19.6026H73.8464V33.1824H67.9727V0H84.6953V5.98554H73.8464V13.6172ZM94.4217 27.9449C97.826 28.0195 101.268 28.2819 104.597 28.4686V34.3794C99.2476 34.0425 93.898 33.7062 88.4363 33.5937V0H94.4217V27.9449ZM109.647 34.7909C111.555 34.9033 113.575 35.0156 115.521 35.2397V0H109.647V34.7909ZM141.745 0L134.151 18.2185L141.745 38.3074C139.5 38.0081 137.256 37.5966 135.011 37.2224L130.709 26.1495L126.333 36.3249C124.162 35.9505 122.067 35.8382 119.898 35.5389L127.604 17.9939L120.646 0H127.08L131.008 10.0632L135.198 0L141.745 0Z" fill="#959595"/>
</svg>
