<svg width="16" height="17" viewBox="0 0 16 17" fill="none" xmlns="http://www.w3.org/2000/svg">
<path d="M8.00065 1.64111C9.81199 1.64111 10.038 1.64778 10.7487 1.68111C11.4587 1.71445 11.942 1.82578 12.3673 1.99111C12.8073 2.16045 13.178 2.38978 13.5487 2.75978C13.8876 3.09304 14.15 3.49617 14.3173 3.94111C14.482 4.36578 14.594 4.84978 14.6273 5.55978C14.6587 6.27045 14.6673 6.49645 14.6673 8.30778C14.6673 10.1191 14.6607 10.3451 14.6273 11.0558C14.594 11.7658 14.482 12.2491 14.3173 12.6744C14.1504 13.1196 13.8881 13.5229 13.5487 13.8558C13.2153 14.1947 12.8122 14.4569 12.3673 14.6244C11.9427 14.7891 11.4587 14.9011 10.7487 14.9344C10.038 14.9658 9.81199 14.9744 8.00065 14.9744C6.18932 14.9744 5.96332 14.9678 5.25265 14.9344C4.54265 14.9011 4.05932 14.7891 3.63398 14.6244C3.18887 14.4574 2.78567 14.1951 2.45265 13.8558C2.11359 13.5226 1.85127 13.1194 1.68398 12.6744C1.51865 12.2498 1.40732 11.7658 1.37398 11.0558C1.34265 10.3451 1.33398 10.1191 1.33398 8.30778C1.33398 6.49645 1.34065 6.27045 1.37398 5.55978C1.40732 4.84911 1.51865 4.36645 1.68398 3.94111C1.85081 3.4959 2.11319 3.09266 2.45265 2.75978C2.78577 2.4206 3.18894 2.15827 3.63398 1.99111C4.05932 1.82578 4.54198 1.71445 5.25265 1.68111C5.96332 1.64978 6.18932 1.64111 8.00065 1.64111ZM8.00065 4.97445C7.1166 4.97445 6.26875 5.32564 5.64363 5.95076C5.01851 6.57588 4.66732 7.42373 4.66732 8.30778C4.66732 9.19183 5.01851 10.0397 5.64363 10.6648C6.26875 11.2899 7.1166 11.6411 8.00065 11.6411C8.88471 11.6411 9.73255 11.2899 10.3577 10.6648C10.9828 10.0397 11.334 9.19183 11.334 8.30778C11.334 7.42373 10.9828 6.57588 10.3577 5.95076C9.73255 5.32564 8.88471 4.97445 8.00065 4.97445ZM12.334 4.80778C12.334 4.58677 12.2462 4.3748 12.0899 4.21852C11.9336 4.06224 11.7217 3.97445 11.5007 3.97445C11.2796 3.97445 11.0677 4.06224 10.9114 4.21852C10.7551 4.3748 10.6673 4.58677 10.6673 4.80778C10.6673 5.02879 10.7551 5.24076 10.9114 5.39704C11.0677 5.55332 11.2796 5.64111 11.5007 5.64111C11.7217 5.64111 11.9336 5.55332 12.0899 5.39704C12.2462 5.24076 12.334 5.02879 12.334 4.80778ZM8.00065 6.30778C8.53108 6.30778 9.03979 6.51849 9.41487 6.89357C9.78994 7.26864 10.0007 7.77735 10.0007 8.30778C10.0007 8.83821 9.78994 9.34692 9.41487 9.72199C9.03979 10.0971 8.53108 10.3078 8.00065 10.3078C7.47022 10.3078 6.96151 10.0971 6.58644 9.72199C6.21136 9.34692 6.00065 8.83821 6.00065 8.30778C6.00065 7.77735 6.21136 7.26864 6.58644 6.89357C6.96151 6.51849 7.47022 6.30778 8.00065 6.30778Z" fill="#FA9B0D"/>
</svg>
