<svg width="135" height="39" viewBox="0 0 135 39" fill="none" xmlns="http://www.w3.org/2000/svg">
<g clip-path="url(#clip0_108_484)">
<path d="M46.534 21.3295C45.3705 20.6831 44.7673 20.166 44.7673 19.4335C44.7673 18.5286 45.586 17.9253 46.8787 17.9253C48.3869 17.9253 49.7227 18.5717 49.7227 18.5717L50.7568 15.3399C50.7568 15.3399 49.8089 14.5643 46.9218 14.5643C42.9575 14.5643 40.1997 16.8481 40.1997 20.0368C40.1997 21.8466 41.4924 23.2254 43.216 24.2165C44.5949 24.9922 45.112 25.5523 45.112 26.371C45.112 27.2329 44.4226 27.9223 43.1298 27.9223C41.2339 27.9223 39.4241 26.9312 39.4241 26.9312L38.3037 30.163C38.3037 30.163 39.9842 31.2834 42.7851 31.2834C46.8787 31.2834 49.8089 29.2581 49.8089 25.6385C49.8089 23.6994 48.3007 22.3205 46.534 21.3295ZM62.8222 14.5212C60.7969 14.5212 59.2457 15.4692 57.996 16.9342L57.9099 16.8912L59.6766 7.75598H55.1521L50.7568 30.9817H55.2813L56.7895 23.0531C57.3928 20.0368 58.944 18.227 60.366 18.227C61.4002 18.227 61.788 18.9164 61.788 19.9075C61.788 20.5538 61.7018 21.2864 61.5725 21.9327L59.8489 31.0248H64.3734L66.1401 21.6311C66.3556 20.64 66.4849 19.4766 66.4849 18.6579C66.5279 16.0724 65.1921 14.5212 62.8222 14.5212ZM76.7835 14.5212C71.311 14.5212 67.6914 19.4766 67.6914 24.9491C67.6914 28.4825 69.8459 31.3264 73.9395 31.3264C79.3258 31.3264 82.9454 26.5003 82.9454 20.8986C82.9454 17.6237 81.0494 14.5212 76.7835 14.5212ZM74.5428 27.8361C72.9915 27.8361 72.3452 26.5003 72.3452 24.8629C72.3452 22.2775 73.681 18.0115 76.1802 18.0115C77.7746 18.0115 78.3347 19.3904 78.3347 20.7262C78.3347 23.5702 76.9558 27.8361 74.5428 27.8361ZM94.5798 14.5212C91.5204 14.5212 89.7968 17.2359 89.7968 17.2359H89.7106L89.9691 14.7797H85.9617C85.7463 16.4172 85.4016 18.9164 85.0568 20.8124L81.9112 37.4453H86.4357L87.6854 30.7232H87.7715C87.7715 30.7232 88.7195 31.3264 90.4431 31.3264C95.7864 31.3264 99.2767 25.854 99.2767 20.3384C99.2767 17.279 97.8978 14.5212 94.5798 14.5212ZM90.2277 27.8792C89.0642 27.8792 88.3317 27.2329 88.3317 27.2329L89.1073 22.9669C89.6244 20.1229 91.1326 18.27 92.6838 18.27C94.0627 18.27 94.4936 19.5628 94.4936 20.7693C94.5367 23.6994 92.77 27.8792 90.2277 27.8792ZM105.74 8.01452C104.275 8.01452 103.155 9.17796 103.155 10.643C103.155 11.9788 104.017 12.9268 105.309 12.9268H105.396C106.818 12.9268 108.024 11.9788 108.067 10.2983C108.024 8.96251 107.119 8.01452 105.74 8.01452ZM99.406 30.9817H103.93L107.033 14.909H102.465L99.406 30.9817ZM118.581 14.8659H115.436L115.608 14.0903C115.867 12.539 116.814 11.1601 118.323 11.1601C119.141 11.1601 119.788 11.3756 119.788 11.3756L120.693 7.79907C120.693 7.79907 119.917 7.41125 118.236 7.41125C116.642 7.41125 115.005 7.88525 113.798 8.91942C112.247 10.2552 111.514 12.1512 111.17 14.0472L111.04 14.8228H108.929L108.283 18.227H110.394L107.895 30.9817H112.419L114.832 18.27H117.978L118.581 14.8659ZM129.526 14.909C129.526 14.909 126.682 22.062 125.389 25.9832H125.303C125.217 24.7336 124.183 14.909 124.183 14.909H119.4L122.115 29.689C122.201 30.0337 122.158 30.2061 122.028 30.4646C121.511 31.4988 120.606 32.4899 119.572 33.1793C118.71 33.8257 117.762 34.2135 116.987 34.4721L118.236 38.3071C119.141 38.0916 121.08 37.3591 122.675 35.8509C124.743 33.9119 126.639 30.8955 128.621 26.845L134.18 14.909H129.526Z" fill="#959595"/>
<path d="M21.8003 37.3594L33.047 34.9033C33.047 34.9033 28.9965 7.45465 28.9534 7.28228C28.9103 7.10992 28.781 6.98065 28.6086 6.98065C28.4794 6.98065 25.5923 6.7652 25.5923 6.7652L23.3947 4.56759C23.3516 4.5245 23.2654 4.48141 23.2223 4.43832L21.8003 37.3594ZM22.7052 4.43832C22.6622 4.43832 22.6191 4.43831 22.576 4.48141C22.5329 4.48141 22.1451 4.61068 21.4556 4.82613C20.8093 2.88706 19.6027 1.16344 17.5344 1.16344H17.362C16.8019 0.344724 16.0693 0 15.4661 0C10.6399 0 8.31304 6.03266 7.62359 9.09208C5.7707 9.65226 4.4349 10.0832 4.26254 10.1263C3.22837 10.471 3.18528 10.471 3.05601 11.4621C2.92673 12.2377 0.168945 33.3951 0.168945 33.3951L21.2833 37.3594L22.7052 4.43832ZM17.2328 5.90339V6.11884C16.0693 6.46357 14.7766 6.89447 13.4839 7.28228C14.2164 4.5245 15.5522 3.18869 16.7157 2.67161C17.0604 3.40414 17.2328 4.48141 17.2328 5.90339ZM15.3368 1.29271C15.5522 1.29271 15.7677 1.37889 15.94 1.50817C14.3888 2.2407 12.7514 4.0505 12.0188 7.71319C10.9846 8.01482 9.99357 8.35954 9.08867 8.61809C9.90739 5.8603 11.8465 1.29271 15.3368 1.29271ZM16.1555 17.624C16.1555 17.624 14.9059 16.9776 13.3977 16.9776C11.157 16.9776 11.0277 18.3996 11.0277 18.7443C11.0277 20.6834 16.0693 21.4159 16.0693 25.9404C16.0693 29.517 13.7855 31.8007 10.7692 31.8007C7.10651 31.8007 5.25362 29.517 5.25362 29.517L6.2447 26.2852C6.2447 26.2852 8.18377 27.9226 9.77811 27.9226C10.8554 27.9226 11.2863 27.1039 11.2863 26.4575C11.2863 23.9152 7.1496 23.829 7.1496 19.6492C7.1496 16.1589 9.64884 12.7548 14.7335 12.7548C16.6726 12.7548 17.6637 13.3149 17.6637 13.3149L16.1555 17.624ZM18.0946 2.41306C19.1718 2.54234 19.8613 3.74887 20.3353 5.17085C19.8182 5.34321 19.1718 5.51558 18.5255 5.73103V5.34321C18.5255 4.13668 18.3531 3.18869 18.0946 2.41306Z" fill="#959595"/>
</g>
<defs>
<clipPath id="clip0_108_484">
<rect width="134.097" height="38.3074" fill="white" transform="translate(0.168945)"/>
</clipPath>
</defs>
</svg>
