<svg width="28" height="20" viewBox="0 0 28 20" fill="none" xmlns="http://www.w3.org/2000/svg">
<path d="M0.666016 4.64128C0.666016 3.66882 1.05232 2.73618 1.73996 2.04855C2.42759 1.36092 3.36022 0.974609 4.33268 0.974609H23.666C24.6385 0.974609 25.5711 1.36092 26.2587 2.04855C26.9464 2.73618 27.3327 3.66882 27.3327 4.64128V6.97461H0.666016V4.64128ZM0.666016 8.97461H27.3327V15.9746C27.3327 16.9471 26.9464 17.8797 26.2587 18.5673C25.5711 19.255 24.6385 19.6413 23.666 19.6413H4.33268C3.36022 19.6413 2.42759 19.255 1.73996 18.5673C1.05232 17.8797 0.666016 16.9471 0.666016 15.9746V8.97461ZM18.9993 13.6413C18.7341 13.6413 18.4798 13.7466 18.2922 13.9342C18.1047 14.1217 17.9993 14.3761 17.9993 14.6413C17.9993 14.9065 18.1047 15.1608 18.2922 15.3484C18.4798 15.5359 18.7341 15.6413 18.9993 15.6413H22.3327C22.5979 15.6413 22.8523 15.5359 23.0398 15.3484C23.2273 15.1608 23.3327 14.9065 23.3327 14.6413C23.3327 14.3761 23.2273 14.1217 23.0398 13.9342C22.8523 13.7466 22.5979 13.6413 22.3327 13.6413H18.9993Z" fill="#FA9B0D"/>
</svg>
