<svg width="20" height="19" viewBox="0 0 20 19" fill="none" xmlns="http://www.w3.org/2000/svg">
<path d="M11.2004 10C11.8369 10 12.4474 10.2529 12.8974 10.703C13.3475 11.1531 13.6004 11.7635 13.6004 12.4V14.2C13.6004 16.6648 11.0948 18.4 7.00039 18.4C2.90599 18.4 0.400391 16.6648 0.400391 14.2V12.4C0.400391 11.7635 0.653247 11.1531 1.10333 10.703C1.55342 10.2529 2.16387 10 2.80039 10H11.2004ZM11.2004 11.2H2.80039C2.48213 11.2 2.17691 11.3265 1.95186 11.5515C1.72682 11.7765 1.60039 12.0818 1.60039 12.4V14.2C1.60039 15.8884 3.49519 17.2 7.00039 17.2C10.5056 17.2 12.4004 15.8884 12.4004 14.2V12.4C12.4004 12.0818 12.274 11.7765 12.0489 11.5515C11.8239 11.3265 11.5187 11.2 11.2004 11.2ZM17.2004 10C17.8369 10 18.4474 10.2529 18.8974 10.703C19.3475 11.1531 19.6004 11.7635 19.6004 12.4V13C19.6004 15.5068 17.7188 17.2 14.2004 17.2C14.0312 17.2 13.8644 17.1964 13.7036 17.188C13.9501 16.9025 14.1604 16.5877 14.33 16.2508L14.4464 15.9952H14.4932C17.1716 15.9172 18.4004 14.752 18.4004 13V12.4C18.4004 12.0818 18.274 11.7765 18.0489 11.5515C17.8239 11.3265 17.5187 11.2 17.2004 11.2H14.5952C14.4381 10.7574 14.196 10.3497 13.8824 10H17.2004ZM7.00039 0.400024C7.55194 0.400024 8.09809 0.508661 8.60766 0.71973C9.11723 0.9308 9.58023 1.24017 9.97024 1.63018C10.3602 2.02018 10.6696 2.48319 10.8807 2.99275C11.0918 3.50232 11.2004 4.04847 11.2004 4.60003C11.2004 5.15158 11.0918 5.69773 10.8807 6.2073C10.6696 6.71686 10.3602 7.17987 9.97024 7.56987C9.58023 7.95988 9.11723 8.26925 8.60766 8.48032C8.09809 8.69139 7.55194 8.80003 7.00039 8.80003C5.88648 8.80003 4.81819 8.35753 4.03054 7.56987C3.24289 6.78222 2.80039 5.71393 2.80039 4.60003C2.80039 3.48612 3.24289 2.41783 4.03054 1.63018C4.81819 0.842523 5.88648 0.400024 7.00039 0.400024ZM15.4004 2.80002C16.196 2.80002 16.9591 3.1161 17.5217 3.6787C18.0843 4.24131 18.4004 5.00438 18.4004 5.80002C18.4004 6.59567 18.0843 7.35874 17.5217 7.92135C16.9591 8.48396 16.196 8.80003 15.4004 8.80003C14.6047 8.80003 13.8417 8.48396 13.2791 7.92135C12.7165 7.35874 12.4004 6.59567 12.4004 5.80002C12.4004 5.00438 12.7165 4.24131 13.2791 3.6787C13.8417 3.1161 14.6047 2.80002 15.4004 2.80002ZM7.00039 1.60002C6.20474 1.60002 5.44168 1.9161 4.87907 2.4787C4.31646 3.04131 4.00039 3.80438 4.00039 4.60003C4.00039 5.39567 4.31646 6.15874 4.87907 6.72135C5.44168 7.28396 6.20474 7.60003 7.00039 7.60003C7.79604 7.60003 8.5591 7.28396 9.12171 6.72135C9.68432 6.15874 10.0004 5.39567 10.0004 4.60003C10.0004 3.80438 9.68432 3.04131 9.12171 2.4787C8.5591 1.9161 7.79604 1.60002 7.00039 1.60002ZM15.4004 4.00002C14.923 4.00002 14.4652 4.18967 14.1276 4.52723C13.79 4.8648 13.6004 5.32264 13.6004 5.80002C13.6004 6.27741 13.79 6.73525 14.1276 7.07282C14.4652 7.41038 14.923 7.60003 15.4004 7.60003C15.8778 7.60003 16.3356 7.41038 16.6732 7.07282C17.0107 6.73525 17.2004 6.27741 17.2004 5.80002C17.2004 5.32264 17.0107 4.8648 16.6732 4.52723C16.3356 4.18967 15.8778 4.00002 15.4004 4.00002Z" fill="#D6D4D1"/>
</svg>
