<svg width="32" height="29" viewBox="0 0 32 29" fill="none" xmlns="http://www.w3.org/2000/svg">
<path d="M21.3333 0.90778C20 0.90778 18.9333 1.97445 18.9333 3.30778C18.9333 4.64111 20 5.70778 21.3333 5.70778C22.6667 5.70778 23.7333 4.64111 23.7333 3.30778C23.7333 1.97445 22.6667 0.90778 21.3333 0.90778ZM16.5333 4.77445C15.9067 4.77445 15.3333 5.02778 14.9333 5.44111L10 10.3611C9.58667 10.7744 9.33333 11.3078 9.33333 11.9744C9.33333 12.8144 9.77333 13.5211 10.4667 13.9344L14.9333 16.6411V23.3078H17.3333V14.6411L14.3333 12.4411L17.4267 9.30778L19.7333 12.6411H25.3333V10.2411H21.0667L18.48 5.88111C18.0933 5.21445 17.3333 4.77445 16.5333 4.77445ZM13.3333 3.30778H4C3.26667 3.30778 2.66667 2.70778 2.66667 1.97445C2.66667 1.24111 3.26667 0.641113 4 0.641113H17.0533C16.7733 1.09445 16.5467 1.58778 16.4267 2.12111C15.28 2.14778 14.2 2.57445 13.3333 3.30778ZM6.66667 15.3078C2.98667 15.3078 0 18.2944 0 21.9744C0 25.6544 2.98667 28.6411 6.66667 28.6411C10.3467 28.6411 13.3333 25.6544 13.3333 21.9744C13.3333 18.2944 10.3467 15.3078 6.66667 15.3078ZM6.66667 26.6411C4.09333 26.6411 2 24.5478 2 21.9744C2 19.4011 4.09333 17.3078 6.66667 17.3078C9.24 17.3078 11.3333 19.4011 11.3333 21.9744C11.3333 24.5478 9.24 26.6411 6.66667 26.6411ZM25.3333 15.3078C21.6533 15.3078 18.6667 18.2944 18.6667 21.9744C18.6667 25.6544 21.6533 28.6411 25.3333 28.6411C29.0133 28.6411 32 25.6544 32 21.9744C32 18.2944 29.0133 15.3078 25.3333 15.3078ZM25.3333 26.6411C22.76 26.6411 20.6667 24.5478 20.6667 21.9744C20.6667 19.4011 22.76 17.3078 25.3333 17.3078C27.9067 17.3078 30 19.4011 30 21.9744C30 24.5478 27.9067 26.6411 25.3333 26.6411ZM7.09333 13.9744H1.33333C0.597333 13.9744 0 13.3744 0 12.6411C0 11.9078 0.597333 11.3078 1.33333 11.3078H6.73333C6.70667 11.5211 6.66667 11.7478 6.66667 11.9744C6.66667 12.6811 6.82667 13.3611 7.09333 13.9744ZM8 8.64111H2.66667C1.93333 8.64111 1.33333 8.04111 1.33333 7.30778C1.33333 6.57445 1.93333 5.97445 2.66667 5.97445H10.6267L8.12 8.46778C8.06667 8.52111 8 8.58778 8 8.64111Z" fill="#FA9B0D"/>
</svg>
