<svg width="20" height="27" viewBox="0 0 20 27" fill="none" xmlns="http://www.w3.org/2000/svg">
<path d="M7.33268 8.30762C7.33268 7.95399 7.47316 7.61486 7.72321 7.36481C7.97326 7.11476 8.31239 6.97428 8.66602 6.97428C9.01964 6.97428 9.35878 7.11476 9.60882 7.36481C9.85887 7.61486 9.99935 7.95399 9.99935 8.30762V14.2676L11.6127 14.441L18.1993 17.3609C18.906 17.681 19.3327 18.3876 19.3327 19.1609V24.9743C19.2927 26.0676 18.426 26.9343 17.3327 26.9743H8.66602C8.15935 26.9743 7.67935 26.7743 7.33268 26.4009L0.799349 20.801L1.78602 19.7743C2.03935 19.4943 2.39935 19.3476 2.77268 19.3476H3.06602L7.33268 21.6409V8.30762ZM8.66602 2.97428C10.0805 2.97428 11.4371 3.53619 12.4373 4.53638C13.4374 5.53657 13.9993 6.89313 13.9993 8.30762C13.9993 10.3076 12.9327 12.0009 11.3327 12.9209V11.2943C12.146 10.5609 12.666 9.49428 12.666 8.30762C12.666 7.24675 12.2446 6.22934 11.4944 5.47919C10.7443 4.72904 9.72688 4.30762 8.66602 4.30762C7.60515 4.30762 6.58773 4.72904 5.83759 5.47919C5.08744 6.22934 4.66602 7.24675 4.66602 8.30762C4.66602 9.49428 5.18602 10.5609 5.99935 11.2943V12.9209C4.39935 12.0009 3.33268 10.3076 3.33268 8.30762C3.33268 6.89313 3.89459 5.53657 4.89478 4.53638C5.89497 3.53619 7.25153 2.97428 8.66602 2.97428ZM8.66602 0.307617C10.7877 0.307617 12.8226 1.15047 14.3229 2.65076C15.8232 4.15105 16.666 6.18588 16.666 8.30762C16.666 10.5743 15.7193 12.6143 14.2127 14.0809L12.8793 13.481C13.6455 12.8538 14.263 12.0645 14.6872 11.1699C15.1115 10.2753 15.3319 9.29772 15.3327 8.30762C15.3327 6.53951 14.6303 4.84381 13.3801 3.59357C12.1298 2.34333 10.4341 1.64095 8.66602 1.64095C6.89791 1.64095 5.20221 2.34333 3.95197 3.59357C2.70173 4.84381 1.99935 6.53951 1.99935 8.30762C1.99935 11.0409 3.63935 13.3876 5.99935 14.4143V15.8543C2.89268 14.7476 0.666016 11.7876 0.666016 8.30762C0.666016 6.18588 1.50887 4.15105 3.00916 2.65076C4.50945 1.15047 6.54428 0.307617 8.66602 0.307617Z" fill="#FA9B0D"/>
</svg>
