<svg width="14" height="18" viewBox="0 0 14 18" fill="none" xmlns="http://www.w3.org/2000/svg">
<path d="M13.9141 13.1883C13.9234 13.1203 13.9234 13.05 13.9141 12.9797V1.75781H13.9023C13.7969 0.822656 13.0047 0.09375 12.0391 0.09375H2.40625C1.37031 0.09375 0.53125 0.932812 0.53125 1.96875V16.0312C0.53125 16.9945 1.26016 17.7891 2.19531 17.8945V17.9062H8.78125V17.8969C8.875 17.8805 8.96406 17.8453 9.04141 17.7961C9.12344 17.7656 9.20078 17.7188 9.26875 17.6555L13.6937 13.6031C13.7828 13.5211 13.8484 13.4203 13.8836 13.3125H13.9141V13.1883ZM1.9375 16.0312V1.96875C1.9375 1.71094 2.14844 1.5 2.40625 1.5H12.0391C12.2969 1.5 12.5078 1.71094 12.5078 1.96875V12.2109H9.83594C8.8 12.2109 7.96094 13.05 7.96094 14.0859V16.5H2.40625C2.14844 16.5 1.9375 16.2891 1.9375 16.0312ZM11.5961 13.6172L9.36719 15.6586V14.0859C9.36719 13.8281 9.57812 13.6172 9.83594 13.6172H11.5961Z" fill="#D6D4D1"/>
</svg>
