<svg width="24" height="25" viewBox="0 0 24 25" fill="none" xmlns="http://www.w3.org/2000/svg">
<path d="M12 0.307617C13.5913 0.307617 15.1174 0.939758 16.2426 2.06498C17.3679 3.19019 18 4.71632 18 6.30762C18 7.89892 17.3679 9.42504 16.2426 10.5503C15.1174 11.6755 13.5913 12.3076 12 12.3076C10.4087 12.3076 8.88258 11.6755 7.75736 10.5503C6.63214 9.42504 6 7.89892 6 6.30762C6 4.71632 6.63214 3.19019 7.75736 2.06498C8.88258 0.939758 10.4087 0.307617 12 0.307617ZM12 15.3076C18.63 15.3076 24 17.9926 24 21.3076V24.3076H0V21.3076C0 17.9926 5.37 15.3076 12 15.3076Z" fill="#FA9B0D"/>
</svg>
